<?xml version="1.0" encoding="utf-8"?>
<!-- Generator: Adobe Illustrator 24.1.0, SVG Export Plug-In . SVG Version: 6.00 Build 0)  -->
<svg version="1.1" xmlns="http://www.w3.org/2000/svg" xmlns:xlink="http://www.w3.org/1999/xlink" x="0px" y="0px"
	 viewBox="0 0 1489.12 621.74" style="enable-background:new 0 0 1489.12 621.74;" xml:space="preserve">
<style type="text/css">
	.st0{fill:#0A0A0A;}
	.st1{fill:none;stroke:#E52D07;stroke-width:4;stroke-miterlimit:10;}
	.st2{fill:none;stroke:#E52D07;stroke-width:3.7529;stroke-miterlimit:10;}
	.st3{fill:none;stroke:#E52D07;stroke-width:3.9291;stroke-miterlimit:10;}
	.st4{fill:none;stroke:#E52D07;stroke-width:3.9145;stroke-miterlimit:10;}
	.st5{filter:url(#Adobe_OpacityMaskFilter);}
	.st6{opacity:0.75;mask:url(#SVGID_1_);}
	.st7{fill:#EF4720;}
	.st8{fill:none;stroke:#EF4720;stroke-width:4;stroke-miterlimit:10;}
	.st9{fill:none;stroke:#EF4720;stroke-width:3.7529;stroke-miterlimit:10;}
	.st10{fill:none;stroke:#EF4720;stroke-width:3.9291;stroke-miterlimit:10;}
	.st11{fill:none;stroke:#EF4720;stroke-width:3.9145;stroke-miterlimit:10;}
</style>
<g id="background">
	<rect class="st0" width="1489.12" height="621.74"/>
</g>
<g id="text">
	<g>
		<g>
			
				<image style="overflow:visible;opacity:0.8;" width="275" height="331" xlink:href="E1161832803C1E03.png"  transform="matrix(1 0 0 1 171.5217 54.6087)">
			</image>
			<g>
				<path class="st1" d="M383.27,189.55l-4.8,1.2c-8.16-26.7-21.6-41.1-45.12-42.9v136.5c0,21.6,3.36,31.2,18.96,31.5v7.5h-87.12
					v-7.5c15.6-0.3,18.96-9.9,18.96-31.5v-136.5c-22.56,0.6-39.36,15.6-45.12,42.9l-5.04-1.2l11.76-68.4c1.44,3,4.8,4.8,18.96,4.8
					h86.16c15.84,0,19.2-1.2,21.36-4.8L383.27,189.55z"/>
			</g>
		</g>
		<g>
			
				<image style="overflow:visible;opacity:0.8;" width="626" height="322" xlink:href="E1161832803C1E0F.png"  transform="matrix(1 0 0 1 315.5217 63.6087)">
			</image>
			<g>
				<path class="st1" d="M725.29,315.82c9.08-0.6,12.21-9.69,12.21-29.97v-122.4c0-21-3.36-30-13.2-30v-7.5h91.68v7.5
					c-4.56,0-7.68,3.3-7.68,8.1c0,3.3,2.16,9.3,9.6,20.1l27.84,39.6v-37.8c0-21-4.8-30-14.64-30v-7.5h48.24v7.5
					c-9.84,0-13.2,9-13.2,30v122.1c0,21,3.36,30,13.2,30v7.5h-48.24v-7.2c7.68-1.5,12.24-6.9,12.24-17.1
					c0-14.4-6.96-24.3-14.16-34.5l-71.28-102.6v124.2c0,21,3.12,30,12.96,30v7.5h-38.38h-14.07h-75.71v-7.5
					c7.68-0.6,13.2-7.2,13.2-17.4c0-31.8-34.08-50.1-56.4-50.7l-8.64,30.6c-1.68,6.3-4.56,17.7-4.56,24.3
					c0,9.3,4.56,12.3,11.04,13.2v7.5h-43.91h-14.32h-66.32v-7.5c5.52,0,9.84-1.8,9.84-9.9c0-18.3-24-61.5-34.08-76.2l-8.4,3.6v52.5
					c0,21,3.36,30,13.2,30v7.5h-75.36v-7.5c9.84,0,13.2-9,13.2-30v-122.4c0-21,0.93-30-8.91-30v-7.5h103.72
					c15.84,0,43.44,1.8,43.44,30.3c0,24.9-18.24,41.4-34.08,51.6c17.76,21.3,31.68,51.3,40.08,83.4
					c2.01,7.99,5.27,18.07,11.37,22.43l2.48,0.11c9.59-5.85,14.07-19.9,17.82-32.14l37.68-123.6c1.92-6.6,4.08-12.9,4.08-17.1
					c0-4.5-1.92-6.9-5.28-7.5v-7.5h70.08v7.5c-3.6,0.6-5.52,2.4-5.52,7.5c0,3.9,20.88,79.8,37.44,141
					C709.17,294.47,712.76,313.82,725.29,315.82z"/>
			</g>
		</g>
		<g>
			
				<image style="overflow:visible;opacity:0.8;" width="164" height="191" xlink:href="E1161832803C1E01.png"  transform="matrix(1 0 0 1 377.5217 83.6087)">
			</image>
			<g>
				<path class="st1" d="M440.15,211.45c16.32-5.1,38.4-17.1,38.4-42.6c0-15.3-8.16-23.1-20.16-23.1c-12.96,0-18.24,3.6-18.24,21.3
					V211.45z"/>
			</g>
		</g>
		<g>
			
				<image style="overflow:visible;opacity:0.8;" width="163" height="211" xlink:href="E1161832803C1E02.png"  transform="matrix(1 0 0 1 542.5217 97.6087)">
			</image>
			<g>
				<path class="st1" d="M605.26,228.25c12.24,0,26.88,6,36.48,14.4l-19.68-76.8L605.26,228.25z"/>
			</g>
		</g>
		<g>
			
				<image style="overflow:visible;opacity:0.8;" width="463" height="341" xlink:href="E1161832803C1E00.png"  transform="matrix(1 0 0 1 817.5217 52.6087)">
			</image>
			<g>
				<path class="st1" d="M1063.9,315.85c9.84,0,13.2-9,13.2-30v-122.4c0-21-3.36-30-13.2-30v-7.5h108.96
					c14.16,0,17.28-0.9,20.16-4.8l12.24,69l-5.28,2.1c-6.96-29.1-27.6-46.5-51.6-46.5c-20.64,0-22.08,5.4-22.08,35.1v9.6h7.68
					c22.8,0,31.44-2.7,31.44-24.3l4.8-0.9l10.56,76.2l-4.8,0.6c-2.64-8.4-6.48-16.2-11.76-22.2c-5.04-5.7-12.24-9.6-31.44-9.6h-6.48
					v65.1c0,20.4,4.32,28.2,23.28,28.2c30.72,0,50.4-23.1,63.12-55.8l5.04,2.4l-20.4,78c-2.88-4.2-7.92-4.8-14.4-4.8h-113.07h-13.5
					h-73.34c-24.72,0-50.16-2.7-70.56-22.2c-20.64-19.8-32.88-52.8-32.88-84.9c0-64.8,40.32-95.1,88.32-95.1
					c18,0,25.2,1.5,37.44,4.5c3.6,0.9,7.2,1.8,10.8,1.8c5.28,0,10.08-3,13.2-8.4l7.44,70.2l-5.04,0.9
					c-8.64-26.7-28.56-46.5-52.08-46.5c-34.32,0-47.28,38.4-47.28,75.6c0,36,15.12,84.3,49.2,84.3c13.92,0,19.44-11.4,19.44-33
					v-27.6c0-22.8-2.64-30.9-14.64-31.5v-7.5h77.04v7.5c-12.96,0.9-15.12,6-15.12,34.8v34.8c0,16.2,0.24,21.9,2.16,26.4
					c1.92,4.8,6,6.6,9.84,8.4H1063.9z"/>
			</g>
		</g>
		<g>
			
				<image style="overflow:visible;opacity:0.8;" width="647" height="322" xlink:href="E1161832803C1E1C.png"  transform="matrix(1 0 0 1 329.5217 301.6087)">
			</image>
			<g>
				<path class="st1" d="M759.58,553.85c9.84,0,12.72-9,12.72-30v-122.4c0-21-2.88-30-12.72-30v-7.5h100.56c9.84,0,25.92,0,34.8,3.6
					c11.04,4.2,18.72,15,18.72,30c0,34.5-24.96,52.5-92.16,73.2v53.1c0,21,4.8,30,14.64,30v7.5h-72.68h-7.85H676.3v-7.5
					c7.68-0.6,13.2-7.2,13.2-17.4c0-31.8-34.08-50.1-56.4-50.7l-8.64,30.6c-1.68,6.3-4.56,17.7-4.56,24.3
					c0,9.3,4.56,12.3,11.04,13.2v7.5h-47.98h-8.24h-72.42v-7.5c9.84,0,13.68-9,13.68-30v-120l-46.08,118.2l-45.12-118.2v118.5
					c0,21.6,3.36,31.2,14.4,31.5v7.5h-47.52v-7.5c9.84,0,12.72-9,12.72-30v-122.4c0-21-2.88-30-12.72-30v-7.5h80.88v7.5
					c-2.64,0.9-5.52,3.3-5.52,7.2c0,3,0.48,6.3,4.08,16.2l14.16,40.2l17.28-42.6c1.44-3.9,3.84-9.6,3.84-13.8c0-3.9-1.44-6-4.08-7.2
					v-7.5h76.08v7.5c-9.84,0-13.2,9-13.2,30v122.4c0,21,3.11,30,12.95,30c12.96-3.6,18.24-20.1,22.56-34.2l37.68-123.6
					c1.92-6.6,4.08-12.9,4.08-17.1c0-4.5-1.92-6.9-5.28-7.5v-7.5h70.08v7.5c-3.6,0.6-5.52,2.4-5.52,7.5c0,3.9,20.88,79.8,37.44,141
					c3.6,12.6,7.2,32.1,19.92,33.9H759.58z"/>
			</g>
		</g>
		<g>
			
				<image style="overflow:visible;opacity:0.8;" width="164" height="211" xlink:href="E1161832803C1E1D.png"  transform="matrix(1 0 0 1 575.5217 335.6087)">
			</image>
			<g>
				<path class="st1" d="M638.86,466.25c12.24,0,26.88,6,36.48,14.4l-19.68-76.8L638.86,466.25z"/>
			</g>
		</g>
		<g>
			
				<image style="overflow:visible;opacity:0.8;" width="167" height="190" xlink:href="E1161832803C1E1E.png"  transform="matrix(1 0 0 1 758.5217 321.6087)">
			</image>
			<g>
				<path class="st1" d="M821.5,448.85c16.32-4.5,41.28-16.8,41.28-41.4c0-17.4-12-23.7-24.24-23.7c-16.32,0-17.04,7.8-17.04,25.2
					V448.85z"/>
			</g>
		</g>
		<g>
			
				<image style="overflow:visible;opacity:0.8;" width="272" height="340" xlink:href="E1161832803C1E1F.png"  transform="matrix(1 0 0 1 853.5217 291.6087)">
			</image>
			<g>
				<path class="st1" d="M1046.86,423.35l-5.04,0.9c-6.72-21.9-25.92-41.1-45.12-41.1c-11.76,0-26.4,6.6-26.4,23.7
					c0,10.5,5.28,15.6,24.96,22.8l28.08,10.5c21.84,8.1,39.84,28.2,39.84,53.4c0,49.8-30.24,72.6-79.44,72.6
					c-12.24,0-21.6-1.8-33.6-4.5c-4.56-1.2-11.28-3-15.84-3c-5.52,0-9.36,2.7-12.96,7.2l-5.28-83.7l5.28-0.9
					c4.56,34.8,27.36,60.9,55.92,60.9c16.32,0,35.04-4.8,35.04-29.7c0-9.9-5.76-17.1-24.72-24.9l-24.24-9.9
					c-9.12-3.6-20.4-8.7-27.84-16.2c-8.64-8.7-14.16-22.5-14.16-36.3c0-54,39.6-66,60.48-66c24.48,0,38.88,6.3,43.92,6.3
					c4.8,0,11.52-2.1,14.88-7.2L1046.86,423.35z"/>
			</g>
		</g>
		<g>
			
				<image style="overflow:visible;opacity:0.8;" width="321" height="409" xlink:href="88317F4C88B0573E.png"  transform="matrix(1 0 0 1 -9.4783 37.6087)">
			</image>
			<g>
				<g>
					<path class="st1" d="M227.27,190.74l-6.72,1.2c-8.96-29.2-34.56-54.8-60.16-54.8c-15.68,0-35.2,8.8-35.2,31.6
						c0,14,7.04,20.8,33.28,30.4l37.44,14c29.12,10.8,53.12,37.6,53.12,71.2c0,66.4-40.32,96.8-105.92,96.8
						c-16.32,0-28.8-2.4-44.8-6c-6.08-1.6-15.04-4-21.12-4c-7.36,0-12.48,3.6-17.28,9.6l-7.04-111.6l7.04-1.2
						c6.08,46.4,36.48,81.2,74.56,81.2c21.76,0,46.72-6.4,46.72-39.6c0-13.2-7.68-22.8-32.96-33.2l-32.32-13.2
						c-12.16-4.8-27.2-11.6-37.12-21.6c-11.52-11.6-18.88-30-18.88-48.4c0-72,52.8-88,80.64-88c32.64,0,51.84,8.4,58.56,8.4
						c6.4,0,15.36-2.8,19.84-9.6L227.27,190.74z"/>
				</g>
			</g>
		</g>
		<g>
			
				<image style="overflow:visible;opacity:0.8;" width="359" height="389" xlink:href="88317F4C88B0573A.png"  transform="matrix(1 0 0 1 1147.5217 48.6087)">
			</image>
			<g>
				<g>
					<path class="st1" d="M1444.23,374.74h-107.52v-10c7.36,0,13.12-2.4,13.12-13.2c0-24.4-32-82-45.44-101.6l-11.2,4.8v70
						c0,28,4.48,40,17.6,40v10H1210.3v-10c13.12,0,17.6-12,17.6-40v-163.2c0-28-4.48-40-17.6-40v-10h144
						c21.12,0,57.92,2.4,57.92,40.4c0,33.2-24.32,55.2-45.44,68.8c23.68,28.4,42.24,68.4,53.44,111.2c3.52,14,9.92,32.8,24,32.8
						V374.74z M1293.19,225.54c21.76-6.8,51.2-22.8,51.2-56.8c0-20.4-10.88-30.8-26.88-30.8c-17.28,0-24.32,4.8-24.32,28.4V225.54z"
						/>
				</g>
			</g>
		</g>
		<g>
			
				<image style="overflow:visible;opacity:0.8;" width="1477" height="144" xlink:href="88317F4C88B05725.png"  transform="matrix(1 0 0 1 -2.4783 -3.3913)">
			</image>
			<g>
				<rect x="59.9" y="59.17" class="st2" width="1352.32" height="19.47"/>
			</g>
		</g>
		<g>
			
				<image style="overflow:visible;opacity:0.8;" width="451" height="144" xlink:href="88317F4C88B05726.png"  transform="matrix(1 0 0 1 -9.4783 351.6087)">
			</image>
			<g>
				<rect x="52.86" y="413.95" class="st3" width="325.99" height="19.47"/>
			</g>
		</g>
		<g>
			
				<image style="overflow:visible;opacity:0.8;" width="493" height="144" xlink:href="88317F4C88B05724.png"  transform="matrix(1 0 0 1 1013.5217 351.6087)">
			</image>
			<g>
				<rect x="1075.99" y="413.95" class="st4" width="368.24" height="19.47"/>
			</g>
		</g>
	</g>
</g>
<g id="text2">
	<g>
		<g>
			<g>
				<g>
					
						<image style="overflow:visible;opacity:0.8;" width="275" height="331" xlink:href="88317F4C88B0572A.png"  transform="matrix(1 0 0 1 171.5217 54.6087)">
					</image>
					<g>
						<path class="st1" d="M383.27,189.55l-4.8,1.2c-8.16-26.7-21.6-41.1-45.12-42.9v136.5c0,21.6,3.36,31.2,18.96,31.5v7.5h-87.12
							v-7.5c15.6-0.3,18.96-9.9,18.96-31.5v-136.5c-22.56,0.6-39.36,15.6-45.12,42.9l-5.04-1.2l11.76-68.4c1.44,3,4.8,4.8,18.96,4.8
							h86.16c15.84,0,19.2-1.2,21.36-4.8L383.27,189.55z"/>
					</g>
				</g>
				<g>
					
						<image style="overflow:visible;opacity:0.8;" width="626" height="322" xlink:href="88317F4C88B0572D.png"  transform="matrix(1 0 0 1 315.5217 63.6087)">
					</image>
					<g>
						<path class="st1" d="M725.29,315.82c9.08-0.6,12.21-9.69,12.21-29.97v-122.4c0-21-3.36-30-13.2-30v-7.5h91.68v7.5
							c-4.56,0-7.68,3.3-7.68,8.1c0,3.3,2.16,9.3,9.6,20.1l27.84,39.6v-37.8c0-21-4.8-30-14.64-30v-7.5h48.24v7.5
							c-9.84,0-13.2,9-13.2,30v122.1c0,21,3.36,30,13.2,30v7.5h-48.24v-7.2c7.68-1.5,12.24-6.9,12.24-17.1
							c0-14.4-6.96-24.3-14.16-34.5l-71.28-102.6v124.2c0,21,3.12,30,12.96,30v7.5h-38.38h-14.07h-75.71v-7.5
							c7.68-0.6,13.2-7.2,13.2-17.4c0-31.8-34.08-50.1-56.4-50.7l-8.64,30.6c-1.68,6.3-4.56,17.7-4.56,24.3
							c0,9.3,4.56,12.3,11.04,13.2v7.5h-43.91h-14.32h-66.32v-7.5c5.52,0,9.84-1.8,9.84-9.9c0-18.3-24-61.5-34.08-76.2l-8.4,3.6
							v52.5c0,21,3.36,30,13.2,30v7.5h-75.36v-7.5c9.84,0,13.2-9,13.2-30v-122.4c0-21,0.93-30-8.91-30v-7.5h103.72
							c15.84,0,43.44,1.8,43.44,30.3c0,24.9-18.24,41.4-34.08,51.6c17.76,21.3,31.68,51.3,40.08,83.4
							c2.01,7.99,5.27,18.07,11.37,22.43l2.48,0.11c9.59-5.85,14.07-19.9,17.82-32.14l37.68-123.6c1.92-6.6,4.08-12.9,4.08-17.1
							c0-4.5-1.92-6.9-5.28-7.5v-7.5h70.08v7.5c-3.6,0.6-5.52,2.4-5.52,7.5c0,3.9,20.88,79.8,37.44,141
							C709.17,294.47,712.76,313.82,725.29,315.82z"/>
					</g>
				</g>
				<g>
					
						<image style="overflow:visible;opacity:0.8;" width="164" height="191" xlink:href="88317F4C88B0572E.png"  transform="matrix(1 0 0 1 377.5217 83.6087)">
					</image>
					<g>
						<path class="st1" d="M440.15,211.45c16.32-5.1,38.4-17.1,38.4-42.6c0-15.3-8.16-23.1-20.16-23.1
							c-12.96,0-18.24,3.6-18.24,21.3V211.45z"/>
					</g>
				</g>
				<g>
					
						<image style="overflow:visible;opacity:0.8;" width="163" height="211" xlink:href="88317F4C88B0572C.png"  transform="matrix(1 0 0 1 542.5217 97.6087)">
					</image>
					<g>
						<path class="st1" d="M605.26,228.25c12.24,0,26.88,6,36.48,14.4l-19.68-76.8L605.26,228.25z"/>
					</g>
				</g>
				<g>
					
						<image style="overflow:visible;opacity:0.8;" width="463" height="341" xlink:href="88317F4C88B05720.png"  transform="matrix(1 0 0 1 817.5217 52.6087)">
					</image>
					<g>
						<path class="st1" d="M1063.9,315.85c9.84,0,13.2-9,13.2-30v-122.4c0-21-3.36-30-13.2-30v-7.5h108.96
							c14.16,0,17.28-0.9,20.16-4.8l12.24,69l-5.28,2.1c-6.96-29.1-27.6-46.5-51.6-46.5c-20.64,0-22.08,5.4-22.08,35.1v9.6h7.68
							c22.8,0,31.44-2.7,31.44-24.3l4.8-0.9l10.56,76.2l-4.8,0.6c-2.64-8.4-6.48-16.2-11.76-22.2c-5.04-5.7-12.24-9.6-31.44-9.6
							h-6.48v65.1c0,20.4,4.32,28.2,23.28,28.2c30.72,0,50.4-23.1,63.12-55.8l5.04,2.4l-20.4,78c-2.88-4.2-7.92-4.8-14.4-4.8
							h-113.07h-13.5h-73.34c-24.72,0-50.16-2.7-70.56-22.2c-20.64-19.8-32.88-52.8-32.88-84.9c0-64.8,40.32-95.1,88.32-95.1
							c18,0,25.2,1.5,37.44,4.5c3.6,0.9,7.2,1.8,10.8,1.8c5.28,0,10.08-3,13.2-8.4l7.44,70.2l-5.04,0.9
							c-8.64-26.7-28.56-46.5-52.08-46.5c-34.32,0-47.28,38.4-47.28,75.6c0,36,15.12,84.3,49.2,84.3c13.92,0,19.44-11.4,19.44-33
							v-27.6c0-22.8-2.64-30.9-14.64-31.5v-7.5h77.04v7.5c-12.96,0.9-15.12,6-15.12,34.8v34.8c0,16.2,0.24,21.9,2.16,26.4
							c1.92,4.8,6,6.6,9.84,8.4H1063.9z"/>
					</g>
				</g>
				<g>
					
						<image style="overflow:visible;opacity:0.8;" width="647" height="322" xlink:href="88317F4C88B0574E.png"  transform="matrix(1 0 0 1 329.5217 301.6087)">
					</image>
					<g>
						<path class="st1" d="M759.58,553.85c9.84,0,12.72-9,12.72-30v-122.4c0-21-2.88-30-12.72-30v-7.5h100.56
							c9.84,0,25.92,0,34.8,3.6c11.04,4.2,18.72,15,18.72,30c0,34.5-24.96,52.5-92.16,73.2v53.1c0,21,4.8,30,14.64,30v7.5h-72.68
							h-7.85H676.3v-7.5c7.68-0.6,13.2-7.2,13.2-17.4c0-31.8-34.08-50.1-56.4-50.7l-8.64,30.6c-1.68,6.3-4.56,17.7-4.56,24.3
							c0,9.3,4.56,12.3,11.04,13.2v7.5h-47.98h-8.24h-72.42v-7.5c9.84,0,13.68-9,13.68-30v-120l-46.08,118.2l-45.12-118.2v118.5
							c0,21.6,3.36,31.2,14.4,31.5v7.5h-47.52v-7.5c9.84,0,12.72-9,12.72-30v-122.4c0-21-2.88-30-12.72-30v-7.5h80.88v7.5
							c-2.64,0.9-5.52,3.3-5.52,7.2c0,3,0.48,6.3,4.08,16.2l14.16,40.2l17.28-42.6c1.44-3.9,3.84-9.6,3.84-13.8
							c0-3.9-1.44-6-4.08-7.2v-7.5h76.08v7.5c-9.84,0-13.2,9-13.2,30v122.4c0,21,3.11,30,12.95,30c12.96-3.6,18.24-20.1,22.56-34.2
							l37.68-123.6c1.92-6.6,4.08-12.9,4.08-17.1c0-4.5-1.92-6.9-5.28-7.5v-7.5h70.08v7.5c-3.6,0.6-5.52,2.4-5.52,7.5
							c0,3.9,20.88,79.8,37.44,141c3.6,12.6,7.2,32.1,19.92,33.9H759.58z"/>
					</g>
				</g>
				<g>
					
						<image style="overflow:visible;opacity:0.8;" width="164" height="211" xlink:href="88317F4C88B05741.png"  transform="matrix(1 0 0 1 575.5217 335.6087)">
					</image>
					<g>
						<path class="st1" d="M638.86,466.25c12.24,0,26.88,6,36.48,14.4l-19.68-76.8L638.86,466.25z"/>
					</g>
				</g>
				<g>
					
						<image style="overflow:visible;opacity:0.8;" width="167" height="190" xlink:href="88317F4C88B05740.png"  transform="matrix(1 0 0 1 758.5217 321.6087)">
					</image>
					<g>
						<path class="st1" d="M821.5,448.85c16.32-4.5,41.28-16.8,41.28-41.4c0-17.4-12-23.7-24.24-23.7c-16.32,0-17.04,7.8-17.04,25.2
							V448.85z"/>
					</g>
				</g>
				<g>
					
						<image style="overflow:visible;opacity:0.8;" width="272" height="340" xlink:href="88317F4C88B05746.png"  transform="matrix(1 0 0 1 853.5217 291.6087)">
					</image>
					<g>
						<path class="st1" d="M1046.86,423.35l-5.04,0.9c-6.72-21.9-25.92-41.1-45.12-41.1c-11.76,0-26.4,6.6-26.4,23.7
							c0,10.5,5.28,15.6,24.96,22.8l28.08,10.5c21.84,8.1,39.84,28.2,39.84,53.4c0,49.8-30.24,72.6-79.44,72.6
							c-12.24,0-21.6-1.8-33.6-4.5c-4.56-1.2-11.28-3-15.84-3c-5.52,0-9.36,2.7-12.96,7.2l-5.28-83.7l5.28-0.9
							c4.56,34.8,27.36,60.9,55.92,60.9c16.32,0,35.04-4.8,35.04-29.7c0-9.9-5.76-17.1-24.72-24.9l-24.24-9.9
							c-9.12-3.6-20.4-8.7-27.84-16.2c-8.64-8.7-14.16-22.5-14.16-36.3c0-54,39.6-66,60.48-66c24.48,0,38.88,6.3,43.92,6.3
							c4.8,0,11.52-2.1,14.88-7.2L1046.86,423.35z"/>
					</g>
				</g>
				<g>
					
						<image style="overflow:visible;opacity:0.8;" width="321" height="409" xlink:href="88317F4C88B0577D.png"  transform="matrix(1 0 0 1 -9.4783 37.6087)">
					</image>
					<g>
						<g>
							<path class="st1" d="M227.27,190.74l-6.72,1.2c-8.96-29.2-34.56-54.8-60.16-54.8c-15.68,0-35.2,8.8-35.2,31.6
								c0,14,7.04,20.8,33.28,30.4l37.44,14c29.12,10.8,53.12,37.6,53.12,71.2c0,66.4-40.32,96.8-105.92,96.8
								c-16.32,0-28.8-2.4-44.8-6c-6.08-1.6-15.04-4-21.12-4c-7.36,0-12.48,3.6-17.28,9.6l-7.04-111.6l7.04-1.2
								c6.08,46.4,36.48,81.2,74.56,81.2c21.76,0,46.72-6.4,46.72-39.6c0-13.2-7.68-22.8-32.96-33.2l-32.32-13.2
								c-12.16-4.8-27.2-11.6-37.12-21.6c-11.52-11.6-18.88-30-18.88-48.4c0-72,52.8-88,80.64-88c32.64,0,51.84,8.4,58.56,8.4
								c6.4,0,15.36-2.8,19.84-9.6L227.27,190.74z"/>
						</g>
					</g>
				</g>
				<g>
					
						<image style="overflow:visible;opacity:0.8;" width="359" height="389" xlink:href="88317F4C88B0577F.png"  transform="matrix(1 0 0 1 1147.5217 48.6087)">
					</image>
					<g>
						<g>
							<path class="st1" d="M1444.23,374.74h-107.52v-10c7.36,0,13.12-2.4,13.12-13.2c0-24.4-32-82-45.44-101.6l-11.2,4.8v70
								c0,28,4.48,40,17.6,40v10H1210.3v-10c13.12,0,17.6-12,17.6-40v-163.2c0-28-4.48-40-17.6-40v-10h144
								c21.12,0,57.92,2.4,57.92,40.4c0,33.2-24.32,55.2-45.44,68.8c23.68,28.4,42.24,68.4,53.44,111.2c3.52,14,9.92,32.8,24,32.8
								V374.74z M1293.19,225.54c21.76-6.8,51.2-22.8,51.2-56.8c0-20.4-10.88-30.8-26.88-30.8c-17.28,0-24.32,4.8-24.32,28.4V225.54
								z"/>
						</g>
					</g>
				</g>
				<g>
					
						<image style="overflow:visible;opacity:0.8;" width="1477" height="144" xlink:href="88317F4C88B0577E.png"  transform="matrix(1 0 0 1 -2.4783 -3.3913)">
					</image>
					<g>
						<rect x="59.9" y="59.17" class="st2" width="1352.32" height="19.47"/>
					</g>
				</g>
				<g>
					
						<image style="overflow:visible;opacity:0.8;" width="451" height="144" xlink:href="88317F4C88B0577B.png"  transform="matrix(1 0 0 1 -9.4783 351.6087)">
					</image>
					<g>
						<rect x="52.86" y="413.95" class="st3" width="325.99" height="19.47"/>
					</g>
				</g>
				<g>
					
						<image style="overflow:visible;opacity:0.8;" width="493" height="144" xlink:href="88317F4C88B05748.png"  transform="matrix(1 0 0 1 1013.5217 351.6087)">
					</image>
					<g>
						<rect x="1075.99" y="413.95" class="st4" width="368.24" height="19.47"/>
					</g>
				</g>
			</g>
		</g>
		<defs>
			<filter id="Adobe_OpacityMaskFilter" filterUnits="userSpaceOnUse" x="1.14" y="6.61" width="1492.38" height="611">
				
					<feColorMatrix  type="matrix" values="-1 0 0 0 1  0 -1 0 0 1  0 0 -1 0 1  0 0 0 1 0" color-interpolation-filters="sRGB" result="source"/>
			</filter>
		</defs>
		<mask maskUnits="userSpaceOnUse" x="1.14" y="6.61" width="1492.38" height="611" id="SVGID_1_">
			<g class="st5">
				
					<image style="overflow:visible;" width="1497" height="615" xlink:href="88317F4C88B0577F.jpg"  transform="matrix(1 0 0 1 -1.4783 4.6087)">
				</image>
			</g>
		</mask>
		<g class="st6">
			<g>
				<g>
					<path class="st7" d="M432.52,160.11c0-2.93-0.64-5.45-1-8.5c-0.29-2.5-1.13-5.42-1.5-8c-0.41-2.88-1.03-5.56-1.5-8.5
						c-0.11-0.71-0.86-1.03-1-2c-0.1-0.65,0.1-1.35,0-2c-0.18-1.22-0.58-2.74-1-4c-3.86-11.59-6.8-22.1-15-32
						c-4.41-5.32-9.3-9.99-15.5-13.75c-5.11-3.1-10.95-4.67-16.5-6.75h-5c0-0.33,0-0.67,0-1h-7c0-0.33,0-0.67,0-1h-120
						c0,0.33,0,0.67,0,1h-6c0,0.33,0,0.67,0,1h-4c-14.49,5.43-27.08,12.3-35,25.5c-3.52,5.87-6.86,11.59-9,18
						c-0.98,2.94-1.02,6.06-2,9c-0.99,2.97-2.05,6.37-2.5,9.5c-1.55,10.84-4.5,20.82-4.5,32.5c0,3.15-1.45,5.17-1,8.5
						c0.18,1.34,0.83,2.35,1,4c0.12,1.14,0,2.35,0,3.5c0,5.46,1.02,11.75,3,16.5c4.68,11.23,12.11,23.3,25,29
						c5.75,2.54,12.51,4.63,16,10c3.1,4.77,3,9.91,3,16c0,11.83-3.54,22.12-7,32.5c-1.8,5.41-3.21,10.62-4,16.5
						c-0.21,1.59-1,2.5-1,4.5c0,1.33,0,2.67,0,4c0,2.67,0,5.33,0,8c0,12.11,3.63,23,11,32c8.89,10.86,20.36,14.76,33,19.5h5
						c0,0.33,0,0.67,0,1h6c0,0.33,0,0.67,0,1h11c0,0.33,0,0.67,0,1h47c0-0.33,0-0.67,0-1h11c0-0.33,0-0.67,0-1h6c0-0.33,0-0.67,0-1
						h5c6.4-2.4,13.05-3.96,19-7.5c6.58-3.91,12.73-9.94,17-16c0.85-1.21,1.71-3.18,2.5-4.5c0.87-1.45,0.8-3.07,1.5-4.5
						c0.82-1.67,1.44-2.7,2-4.5c0.47-1.51,0.49-2.98,1-4.5c1.79-5.38,1-12.45,1-18.5c0-11.89-4.51-22.03-8-32.5
						c-0.93-2.79-1.17-5.61-2-8.5c-0.71-2.47-0.56-4.72-1-7.5c-0.13-0.82-0.84-1.84-1-3c-0.09-0.61,0-1.4,0-2c0-1.33,0-2.67,0-4
						c0-2.44-0.31-5.09,0-7.5c1.79-14.02,17.14-15.99,27-24c10.88-8.84,15.22-19.53,18-32c1.19-5.35,2-10.63,2-16.5
						C433.52,170.31,432.52,165.73,432.52,160.11z"/>
					<g>
						<path class="st8" d="M383.27,189.55l-4.8,1.2c-8.16-26.7-21.6-41.1-45.12-42.9v136.5c0,21.6,3.36,31.2,18.96,31.5v7.5h-87.12
							v-7.5c15.6-0.3,18.96-9.9,18.96-31.5v-136.5c-22.56,0.6-39.36,15.6-45.12,42.9l-5.04-1.2l11.76-68.4c1.44,3,4.8,4.8,18.96,4.8
							h86.16c15.84,0,19.2-1.2,21.36-4.8L383.27,189.55z"/>
					</g>
				</g>
				<g>
					<path class="st7" d="M926.52,321.61c0.75-4.89-0.36-10.2-1-14.5c-0.19-1.31,0.18-2.69,0-4c-0.16-1.17-0.86-2.16-1-3
						c-0.16-0.98,0.14-2.02,0-3c-0.2-1.4-0.82-2.33-1-3.5c-0.7-4.61-1.26-8.53-2-13c-1.41-8.48-2-16.84-2-26c0-17.5,0-35,0-52.5
						c0-4.33,0-8.67,0-13c0-4.94,1-8.81,1-13.5c0-4.25,1.01-8.96,2-13c1.04-4.23,1.77-8.62,2.5-13c3.1-18.6,1.44-36.75-8.5-52h-1
						c0.19-3.42-6.5-7.97-9-10c-3.37-2.74-7.7-4.15-11-7h-2c0-0.33,0-0.67,0-1h-2c-2-1-4-2-6-3h-4c0-0.33,0-0.67,0-1h-5
						c0-0.33,0-0.67,0-1h-6c0-0.33,0-0.67,0-1h-12c0-0.33,0-0.67,0-1h-22c0,0.33,0,0.67,0,1h-27c0-0.33,0-0.67,0-1h-64
						c0,0.33,0,0.67,0,1h-11c0,0.33,0,0.67,0,1h-7c0,0.33,0,0.67,0,1h-5c0,0.33,0,0.67,0,1h-5c-2.67,1-5.33,2-8,3h-6
						c0,0.33,0,0.67,0,1h-10c0-0.33,0-0.67,0-1h-5c0-0.33,0-0.67,0-1h-5c-2.67-1-5.33-2-8-3h-6c0-0.33,0-0.67,0-1h-6
						c0-0.33,0-0.67,0-1h-12c0-0.33,0-0.67,0-1h-26c0,0.33,0,0.67,0,1h-11c0,0.33,0,0.67,0,1h-7c0,0.33,0,0.67,0,1h-5
						c-2.41,0.91-4.69,1.85-7,3h-3c0,0.33,0,0.67,0,1h-3c0,0.33,0,0.67,0,1h-2c-3.55,3.1-8.39,4.54-12,7.5
						c-3.98,3.26-7.71,6.61-12,9.5h-7c-12.68-10.68-28.73-15.27-44-21h-5c0-0.33,0-0.67,0-1h-6c0-0.33,0-0.67,0-1h-8
						c0-0.33,0-0.67,0-1h-13c0-0.33,0-0.67,0-1h-77c0,0.33,0,0.67,0,1h-11c0,0.33,0,0.67,0,1h-6c0,0.33,0,0.67,0,1h-5
						c0,0.33,0,0.67,0,1h-4c-5.62,2.11-11.32,4.15-16.5,7.25c-3.42,2.04-15.16,9.23-14.5,13.75h-1c-3,4.9-5.25,9.26-7,14.5
						c-0.84,2.52-1.33,4.82-2,7.5c-0.6,2.41-0.59,4.74-1,7.5c-0.64,4.29-1.75,9.61-1,14.5c0.36,2.34,1,4.65,1,7.5
						c0,2.76,0.65,4.67,1,7c0.34,2.28-0.36,4.72,0,7c0.14,0.85,0.84,1.83,1,3c0.16,1.12,0,2.36,0,3.5c0,4.56,1,8.21,1,13
						c0,8.67,0,17.33,0,26c0,17.5,0,35,0,52.5c0,9.12-1.95,18.14-4,26.5c-1.04,4.25-1.79,8.73-2.5,13c-0.71,4.24-1.5,8.59-1.5,13
						c0,9.73,1.18,18.05,4,26.5c1.4,4.19,4.17,9.56,7,13c1.87,2.28,4.3,4.54,6.5,6.5c1.92,1.71,4.18,2.69,5.5,5h2
						c2.98,2.57,6.96,3.5,10,6h3c0,0.33,0,0.67,0,1h3c0,0.33,0,0.67,0,1h4c0,0.33,0,0.67,0,1h5c0,0.33,0,0.67,0,1h6
						c0,0.33,0,0.67,0,1h12c0,0.33,0,0.67,0,1h44c0-0.33,0-0.67,0-1h41c0,0.33,0,0.67,0,1h94c0-0.33,0-0.67,0-1h11
						c0-0.33,0-0.67,0-1h7c0-0.33,0-0.67,0-1h5c0-0.33,0-0.67,0-1h6c0-0.33,0-0.67,0-1h6c0-0.33,0-0.67,0-1h15c0,0.33,0,0.67,0,1h6
						c0,0.33,0,0.67,0,1h6c0,0.33,0,0.67,0,1h5c0,0.33,0,0.67,0,1h7c0,0.33,0,0.67,0,1h12c0,0.33,0,0.67,0,1h90c0-0.33,0-0.67,0-1h8
						c0-0.33,0-0.67,0-1h6c0-0.33,0-0.67,0-1h5c0-0.33,0-0.67,0-1h4c0-0.33,0-0.67,0-1h3c0-0.33,0-0.67,0-1h3
						c4.77-2.38,10.01-4.13,15-6h9c7.6,2.85,15.4,5.15,23,8h5c0,0.33,0,0.67,0,1h7c0,0.33,0,0.67,0,1h28c0-0.33,0-0.67,0-1h7
						c0-0.33,0-0.67,0-1h5c5.98-2.24,13.03-3.77,18-8h2c10.71-7.26,18.32-17.46,22-28.5c0.37-1.11,0.74-2.48,1-3.5
						c0.25-1,0.88-2.77,1-3.5c0.21-1.3-0.18-2.69,0-4C925.72,323.7,926.34,322.79,926.52,321.61z"/>
					<g>
						<path class="st8" d="M725.29,315.82c9.08-0.6,12.21-9.69,12.21-29.97v-122.4c0-21-3.36-30-13.2-30v-7.5h91.68v7.5
							c-4.56,0-7.68,3.3-7.68,8.1c0,3.3,2.16,9.3,9.6,20.1l27.84,39.6v-37.8c0-21-4.8-30-14.64-30v-7.5h48.24v7.5
							c-9.84,0-13.2,9-13.2,30v122.1c0,21,3.36,30,13.2,30v7.5h-48.24v-7.2c7.68-1.5,12.24-6.9,12.24-17.1
							c0-14.4-6.96-24.3-14.16-34.5l-71.28-102.6v124.2c0,21,3.12,30,12.96,30v7.5h-38.38h-14.07h-75.71v-7.5
							c7.68-0.6,13.2-7.2,13.2-17.4c0-31.8-34.08-50.1-56.4-50.7l-8.64,30.6c-1.68,6.3-4.56,17.7-4.56,24.3
							c0,9.3,4.56,12.3,11.04,13.2v7.5h-43.91h-14.32h-66.32v-7.5c5.52,0,9.84-1.8,9.84-9.9c0-18.3-24-61.5-34.08-76.2l-8.4,3.6
							v52.5c0,21,3.36,30,13.2,30v7.5h-75.36v-7.5c9.84,0,13.2-9,13.2-30v-122.4c0-21,0.93-30-8.91-30v-7.5h103.72
							c15.84,0,43.44,1.8,43.44,30.3c0,24.9-18.24,41.4-34.08,51.6c17.76,21.3,31.68,51.3,40.08,83.4
							c2.01,7.99,5.27,18.07,11.37,22.43l2.48,0.11c9.59-5.85,14.07-19.9,17.82-32.14l37.68-123.6c1.92-6.6,4.08-12.9,4.08-17.1
							c0-4.5-1.92-6.9-5.28-7.5v-7.5h70.08v7.5c-3.6,0.6-5.52,2.4-5.52,7.5c0,3.9,20.88,79.8,37.44,141
							C709.17,294.47,712.76,313.82,725.29,315.82z"/>
					</g>
				</g>
				<g>
					<path class="st7" d="M527.52,156.61c-1.99-13.86-7.88-25.84-16.5-37c-9.42-12.2-23.71-16.83-37.5-22h-7c0-0.33,0-0.67,0-1h-18
						c0,0.33,0,0.67,0,1h-6c-7.04,2.64-13.82,4.62-20.5,8.25c-6.98,3.8-15.02,11.12-19,17.75c-1.93,3.22-3.89,6.2-5.5,9.5
						c-1.42,2.9-2.39,5.5-3.5,8.5c-2.1,5.68-3.53,11.87-4.5,18c-1.77,11.18-1,23.69-1,35.5c0,3.63,0.73,6.03,1,9.5
						c0.15,1.91,0.75,2.84,1,4.5c0.1,0.65-0.1,1.35,0,2c0.14,0.96,0.89,1.3,1,2c1.11,6.98,4.01,11.86,7,18
						c3.1,6.36,8.53,12.68,15,17c5.65,3.77,11.96,5.48,18,8.5h6c0,0.33,0,0.67,0,1h20c0-0.33,0-0.67,0-1h5
						c7.2-2.7,14.25-4.62,21-8.5c8-4.6,14.4-10.4,21-17C523.42,212.21,531.41,183.65,527.52,156.61z"/>
					<g>
						<path class="st8" d="M440.15,211.45c16.32-5.1,38.4-17.1,38.4-42.6c0-15.3-8.16-23.1-20.16-23.1
							c-12.96,0-18.24,3.6-18.24,21.3V211.45z"/>
					</g>
				</g>
				<g>
					<path class="st7" d="M690.52,239.11c0.94-5.89-0.25-12.67-1-18c-0.88-6.28-1.07-12.22-3-18c-0.96-2.89-1.04-6.13-2-9
						c-1.01-3.04-1.48-5.75-2-9c-0.22-1.34-1.79-3.66-2-5c-0.1-0.62,0.19-1.42,0-2c-0.1-0.3-0.96-1.78-1-2c-0.51-3.21-1-6-2-9
						c-2.07-6.22-4.57-12.33-8-18c-3.78-6.24-8.44-12.68-15-17.5c-5.64-4.14-11.78-5.89-18-9h-5c0-0.33,0-0.67,0-1h-19
						c0,0.33,0,0.67,0,1h-5c-7.85,3.93-15.65,6.15-22,12.5c-6.82,6.82-11.16,13.12-15,21c-1.5,3.08-2.92,6.75-4,10
						c-0.98,2.93-1.03,6.08-2,9c-2,6-4.07,12.63-5,19c-1.71,11.67-3.95,26.48-1,38.5c1.59,6.5,3.06,13.27,6.5,19
						c4.1,6.83,9.36,12.69,16,18c11.53,9.23,24.84,12.88,38.5,18h6c0,0.33,0,0.67,0,1h21c0-0.33,0-0.67,0-1h5
						c7.68-2.88,14.64-5.91,21-11c6.55-5.24,10.59-12.58,14-19.5c1.29-2.61,1.07-6.22,2-9c0.55-1.64,0.85-2.59,1-4.5
						c0.06-0.82-0.12-1.69,0-2.5C689.64,240.29,690.43,239.65,690.52,239.11z"/>
					<g>
						<path class="st8" d="M605.26,228.25c12.24,0,26.88,6,36.48,14.4l-19.68-76.8L605.26,228.25z"/>
					</g>
				</g>
				<g>
					<path class="st7" d="M1266.52,269.61c0.37-2.36,0-5.11,0-7.5c0-5.53-0.26-10.4-1-15.5c-1.65-11.45-7.47-20.76-12-31
						c-1.65-3.72-1.65-11.07-1-15.5c0.22-1.49,0.77-2.38,1-4c0.09-0.65-0.1-1.35,0-2c0.12-0.82,0.91-1.46,1-2
						c0.36-2.28-0.32-4.72,0-7c1.44-10.17,0.52-20.79-1-31c-0.38-2.53-1.62-5.45-2-8c-0.41-2.78-0.38-4.89-1-7.5
						c-1.17-4.99-2.36-10.58-4-15.5c-3.77-11.31-8.41-21.2-16-31c-7.42-9.58-20.09-13.41-31-17.5h-4c0-0.33,0-0.67,0-1h-7
						c0-0.33,0-0.67,0-1h-106c0,0.33,0,0.67,0,1h-19c0,0.33,0,0.67,0,1h-9c0-0.33,0-0.67,0-1h-12c0-0.33,0-0.67,0-1h-10
						c0-0.33,0-0.67,0-1h-13c0-0.33,0-0.67,0-1h-23c0-0.33,0-0.67,0-1h-41c0,0.33,0,0.67,0,1h-9c0,0.33,0,0.67,0,1h-6
						c0,0.33,0,0.67,0,1h-6c0,0.33,0,0.67,0,1h-4c0,0.33,0,0.67,0,1h-4c-6.14,3.07-13.14,4.62-19.5,7.33
						c-7.02,3-13.29,7.03-19.5,11.17c-13.43,8.95-26.82,21.92-35,35c-3.52,5.62-7.13,11.11-10,17c-2.66,5.46-4.07,11.22-6,17
						c-0.99,2.96-1.99,5.96-3,9c-0.86,2.59-1.13,5.38-2,8c-0.56,1.69-0.75,3.2-1,5c-0.09,0.65,0.1,1.35,0,2
						c-0.12,0.82-0.91,1.46-1,2c-0.21,1.3,0.18,2.69,0,4c-0.23,1.65-0.78,2.48-1,4c-0.43,2.93,0.47,6.07,0,9c-0.22,1.36-1,2.17-1,4
						c0,1.33,0,2.67,0,4c0,3,0,6,0,9c0,2.98,1,4.9,1,8c0,11.91,2.6,23.62,5.5,34.5c6.56,24.58,17.76,48.76,37,68
						c10.63,10.63,21.09,19.79,34.5,26.5c11.03,5.51,22.55,8.21,34,12.5h5c0,0.33,0,0.67,0,1h5c0,0.33,0,0.67,0,1h7
						c0,0.33,0,0.67,0,1h10c0,0.33,0,0.67,0,1h14c0,0.33,0,0.67,0,1h212c0-0.33,0-0.67,0-1h7c0-0.33,0-0.67,0-1h5c0-0.33,0-0.67,0-1
						h4c0-0.33,0-0.67,0-1h3c0-0.33,0-0.67,0-1h3c2.68-2.26,6.03-3.22,9-5c3.28-1.97,6.04-4.6,9-7c5.38-4.36,8.89-10.84,12-16.5
						c0.99-1.8,2.23-2.65,3-4.5c0.66-1.59,1.23-2.93,2-4.5c1.25-2.56,2.1-5.8,3-8.5c1.92-5.77,4.01-11.36,5-17.5
						c0.4-2.46,2.6-5.46,3-8c0.2-1.24,0.24-2.42,0.5-3.5c0.25-1.01,1.36-2.61,1.5-3.5c0.45-2.9,0.55-5.17,1-8
						c0.09-0.54,0.88-1.18,1-2c0.1-0.65-0.09-1.35,0-2c0.2-1.41,0.82-2.32,1-3.5c0.23-1.46-0.21-3.03,0-4.5
						C1265.72,271.7,1266.34,270.79,1266.52,269.61z"/>
					<g>
						<path class="st8" d="M1063.9,315.85c9.84,0,13.2-9,13.2-30v-122.4c0-21-3.36-30-13.2-30v-7.5h108.96
							c14.16,0,17.28-0.9,20.16-4.8l12.24,69l-5.28,2.1c-6.96-29.1-27.6-46.5-51.6-46.5c-20.64,0-22.08,5.4-22.08,35.1v9.6h7.68
							c22.8,0,31.44-2.7,31.44-24.3l4.8-0.9l10.56,76.2l-4.8,0.6c-2.64-8.4-6.48-16.2-11.76-22.2c-5.04-5.7-12.24-9.6-31.44-9.6
							h-6.48v65.1c0,20.4,4.32,28.2,23.28,28.2c30.72,0,50.4-23.1,63.12-55.8l5.04,2.4l-20.4,78c-2.88-4.2-7.92-4.8-14.4-4.8
							h-113.07h-13.5h-73.34c-24.72,0-50.16-2.7-70.56-22.2c-20.64-19.8-32.88-52.8-32.88-84.9c0-64.8,40.32-95.1,88.32-95.1
							c18,0,25.2,1.5,37.44,4.5c3.6,0.9,7.2,1.8,10.8,1.8c5.28,0,10.08-3,13.2-8.4l7.44,70.2l-5.04,0.9
							c-8.64-26.7-28.56-46.5-52.08-46.5c-34.32,0-47.28,38.4-47.28,75.6c0,36,15.12,84.3,49.2,84.3c13.92,0,19.44-11.4,19.44-33
							v-27.6c0-22.8-2.64-30.9-14.64-31.5v-7.5h77.04v7.5c-12.96,0.9-15.12,6-15.12,34.8v34.8c0,16.2,0.24,21.9,2.16,26.4
							c1.92,4.8,6,6.6,9.84,8.4H1063.9z"/>
					</g>
				</g>
				<g>
					<path class="st7" d="M960.52,374.11c-1.7-5.11-2.76-10.13-5-15c-2.41-5.24-6.3-10.38-10-15c-3.99-4.99-8.66-9.51-14-13.5
						c-4.62-3.45-10.52-5.31-15-9h-2c0-0.33,0-0.67,0-1h-2c-1-0.67-2-1.33-3-2h-3c0-0.33,0-0.67,0-1h-3c-2.67-1-5.33-2-8-3h-5
						c0-0.33,0-0.67,0-1h-6c0-0.33,0-0.67,0-1h-9c0-0.33,0-0.67,0-1h-14c0-0.33,0-0.67,0-1h-81c0,0.33,0,0.67,0,1h-11
						c0,0.33,0,0.67,0,1h-7c0,0.33,0,0.67,0,1h-5c0,0.33,0,0.67,0,1h-5c-2.67,1-5.33,2-8,3h-5c0,0.33,0,0.67,0,1h-13
						c0-0.33,0-0.67,0-1h-5c-3.97-1.49-8.03-2.51-12-4h-6c0-0.33,0-0.67,0-1h-6c0-0.33,0-0.67,0-1h-12c0-0.33,0-0.67,0-1h-26
						c0,0.33,0,0.67,0,1h-11c0,0.33,0,0.67,0,1h-7c0,0.33,0,0.67,0,1h-5c-3.69,1.38-7.48,2.24-11,4h-3c0,0.33,0,0.67,0,1h-3
						c-1,0.67-2,1.33-3,2h-5c0,0.33,0,0.67,0,1h-6c0-0.33,0-0.67,0-1h-5c-6.36-3.18-13.37-4.51-20-7h-5c0-0.33,0-0.67,0-1h-7
						c0-0.33,0-0.67,0-1h-11c0-0.33,0-0.67,0-1h-34c0,0.33,0,0.67,0,1h-13c0,0.33,0,0.67,0,1h-11c0,0.33,0,0.67,0,1h-23
						c0-0.33,0-0.67,0-1h-11c0-0.33,0-0.67,0-1h-14c0-0.33,0-0.67,0-1h-39c0,0.33,0,0.67,0,1h-11c0,0.33,0,0.67,0,1h-7
						c0,0.33,0,0.67,0,1h-5c-5.29,1.98-11.65,3.21-16,7h-2c0,0.33,0,0.67,0,1h-2c-11.16,7.56-19.35,18.23-22.5,30
						c-1.32,4.93-2.5,10.05-2.5,15.5c0,2.67,0,5.33,0,8c0,1.16-0.09,2.35,0,3.5c0.13,1.73,0.81,2.62,1,4c0.65,4.85,0.87,9.38,2,14
						c0.55,2.24,1.14,4.7,1.5,7c0.15,0.97,0.33,2.32,0.5,3.5c0.16,1.17,0.86,2.15,1,3c0.39,2.44-0.38,5.06,0,7.5
						c0.32,2.08,1,3.93,1,6.5c0,4.67,0,9.33,0,14c0,18.33,0,36.67,0,55c0,9.77-0.52,18.77-2,28c-0.1,0.65-0.87,1.13-1,2
						c-0.1,0.65,0.1,1.35,0,2c-0.18,1.24-0.82,1.76-1,3c-0.39,2.61-0.63,4.39-1,7c-0.61,4.36-2,9-2,13.5c0,4.52-0.61,9.52,0,14
						c0.16,1.21,0.75,2.52,1,4c0.16,0.99,0.37,2.2,0.5,3c0.32,1.9,0.7,4.74,1.5,6.5c2.3,5.08,4.66,9.24,8,14
						c1.76,2.5,3.93,5.22,6.5,7.5c1.89,1.68,4.21,2.73,5.5,5h2c5.55,4.67,13.35,6.5,20,9h5c0,0.33,0,0.67,0,1h7c0,0.33,0,0.67,0,1
						h28c0-0.33,0-0.67,0-1h7c0-0.33,0-0.67,0-1h5c8-3,16.35-5.18,24-9h11c4.56,2.28,9.44,3.72,14,6h3c0,0.33,0,0.67,0,1h3
						c0,0.33,0,0.67,0,1h4c0,0.33,0,0.67,0,1h5c0,0.33,0,0.67,0,1h7c0,0.33,0,0.67,0,1h11c0,0.33,0,0.67,0,1h89c0-0.33,0-0.67,0-1h9
						c0-0.33,0-0.67,0-1h7c0-0.33,0-0.67,0-1h5c0-0.33,0-0.67,0-1h5c0-0.33,0-0.67,0-1h6c0-0.33,0-0.67,0-1h18c0,0.33,0,0.67,0,1h6
						c0,0.33,0,0.67,0,1h5c0,0.33,0,0.67,0,1h6c0,0.33,0,0.67,0,1h6c0,0.33,0,0.67,0,1h12c0,0.33,0,0.67,0,1h119c0-0.33,0-0.67,0-1
						h11c0-0.33,0-0.67,0-1h6c0-0.33,0-0.67,0-1h5c0-0.33,0-0.67,0-1h4c0-0.33,0-0.67,0-1h3c0-0.33,0-0.67,0-1h3
						c2.57-2.44,6.99-3.93,10-6h2c1.68-2.96,5.54-5.04,8-7.5c2.69-2.69,4.08-5.31,6-8c3.88-5.44,6.02-10.37,7-17
						c0.81-5.47,2-10.49,2-16.5c0-5.7-1.24-11.42-2-17c-0.14-1.02-0.7-2.78-1-4c-0.32-1.32-0.58-2.25-1-3.5c-0.79-2.37-0.61-4.4-1-7
						c-0.5-3.33-1.12-4.63,0-8c1.02-3.06,1.44-4.44,4-7c4.22-4.22,9.95-6.48,15-9.5c5-3,10.21-5.27,15-8.5
						c10.75-7.23,21.05-15.94,29-26c7.3-9.24,13.42-18.76,17-29.5C964.58,415.43,966.78,392.89,960.52,374.11z"/>
					<g>
						<path class="st8" d="M759.58,553.85c9.84,0,12.72-9,12.72-30v-122.4c0-21-2.88-30-12.72-30v-7.5h100.56
							c9.84,0,25.92,0,34.8,3.6c11.04,4.2,18.72,15,18.72,30c0,34.5-24.96,52.5-92.16,73.2v53.1c0,21,4.8,30,14.64,30v7.5h-72.68
							h-7.85H676.3v-7.5c7.68-0.6,13.2-7.2,13.2-17.4c0-31.8-34.08-50.1-56.4-50.7l-8.64,30.6c-1.68,6.3-4.56,17.7-4.56,24.3
							c0,9.3,4.56,12.3,11.04,13.2v7.5h-47.98h-8.24h-72.42v-7.5c9.84,0,13.68-9,13.68-30v-120l-46.08,118.2l-45.12-118.2v118.5
							c0,21.6,3.36,31.2,14.4,31.5v7.5h-47.52v-7.5c9.84,0,12.72-9,12.72-30v-122.4c0-21-2.88-30-12.72-30v-7.5h80.88v7.5
							c-2.64,0.9-5.52,3.3-5.52,7.2c0,3,0.48,6.3,4.08,16.2l14.16,40.2l17.28-42.6c1.44-3.9,3.84-9.6,3.84-13.8
							c0-3.9-1.44-6-4.08-7.2v-7.5h76.08v7.5c-9.84,0-13.2,9-13.2,30v122.4c0,21,3.11,30,12.95,30c12.96-3.6,18.24-20.1,22.56-34.2
							l37.68-123.6c1.92-6.6,4.08-12.9,4.08-17.1c0-4.5-1.92-6.9-5.28-7.5v-7.5h70.08v7.5c-3.6,0.6-5.52,2.4-5.52,7.5
							c0,3.9,20.88,79.8,37.44,141c3.6,12.6,7.2,32.1,19.92,33.9H759.58z"/>
					</g>
				</g>
				<g>
					<path class="st7" d="M719.52,495.11c5.06-11.13,5.07-23.9,4-36.5c-0.53-6.25-2-12.23-3-18.5c-0.22-1.35-1.78-3.66-2-5
						c-0.09-0.53,0.18-1.46,0-2c-0.1-0.3-0.96-1.77-1-2c-0.53-3.3-0.99-5.98-2-9c-1.01-3.02-1.76-6.47-2.5-9.5
						c-0.72-2.94-1.56-5.67-2.5-8.5c-2.09-6.27-4.37-12.91-8-18.5c-4.1-6.31-8.86-12.1-15.5-16.75c-5.63-3.94-12.07-5.84-18.5-8.25
						h-6c0-0.33,0-0.67,0-1h-14c0,0.33,0,0.67,0,1h-6c-7.95,2.98-15.46,5.55-22,11c-3.91,3.26-6.86,6.68-10,10.5
						c-2.43,2.96-3.55,7.25-5.5,10.5c-6.87,11.46-7.3,25.89-11.5,38.5c-0.96,2.89-1.56,7.04-2,10c-0.19,1.28,0,2.7,0,4
						c0,0.81,0.09,1.69,0,2.5c-0.12,1.06-0.88,1.77-1,2.5c-0.46,2.86-0.43,7.13,0,10c0.25,1.66,0.85,2.59,1,4.5
						c0.11,1.46-0.23,3.05,0,4.5c-0.04-0.27,0.96,2.87,1,3c0.17,0.5,0.44,2.1,0.5,2.5c0.25,1.6,1.02,3.05,1.5,4.5
						c1.12,3.36,2.46,5.84,4,9c3.44,7.05,8.67,13.88,15.5,19.5c11.29,9.29,25,12.94,38.5,18h6c0,0.33,0,0.67,0,1h23
						c0-0.33,0-0.67,0-1h4c7.61-2.85,14.78-5.82,21-11c3.53-2.94,5.66-5.99,8-9.5c1.28-1.92,2.06-3.07,3-5c0.57-1.16,1.43-1.84,2-3
						C719.79,496.56,719.27,495.67,719.52,495.11z"/>
					<g>
						<path class="st8" d="M638.86,466.25c12.24,0,26.88,6,36.48,14.4l-19.68-76.8L638.86,466.25z"/>
					</g>
				</g>
				<g>
					<path class="st7" d="M911.52,395.11c-1.95-13.12-7.72-27.72-17.5-37.5c-5.84-5.84-11.42-10.43-18.5-14.5
						c-5.94-3.41-12.62-5.11-19-7.5h-6c0-0.33,0-0.67,0-1h-22c0,0.33,0,0.67,0,1h-6c-7.23,2.71-14.44,5.07-21,9
						c-7.29,4.37-13.51,10.77-18,17.5c-7.1,10.65-11.2,23.18-13,36c-1.6,11.44-1,23.96-1,36c0,3.29,0.52,5.77,1,9
						c0.4,2.72,1.11,6.34,2,9c0.99,2.98,2.02,6.07,3,9c1.01,3.03,2.59,6.14,4,9c1.53,3.11,4.46,6.46,7,9c2.85,2.85,5.81,5.15,9,7.5
						c5.36,3.94,11.8,5.67,18,8h5c0,0.33,0,0.67,0,1h20c0-0.33,0-0.67,0-1h6c7.32-2.74,14.86-4.78,21.5-8.75
						c7.7-4.6,14.07-9.32,20.5-15.75c5.85-5.85,11.62-12.06,15-19c1.61-3.3,3.47-6.63,5-10c0.53-1.17,0.59-2.77,1-4
						c0.45-1.36,1.79-3.65,2-5C911.43,419.96,913.42,407.89,911.52,395.11z"/>
					<g>
						<path class="st8" d="M821.5,448.85c16.32-4.5,41.28-16.8,41.28-41.4c0-17.4-12-23.7-24.24-23.7c-16.32,0-17.04,7.8-17.04,25.2
							V448.85z"/>
					</g>
				</g>
				<g>
					<path class="st7" d="M1109.52,463.11c-1.82-5.45-2.89-11.41-5.5-16.5c-0.81-1.59-0.94-2.81-1.5-4.5c-0.38-1.14-1.81-2.83-2-4
						c-0.1-0.62,0.19-1.42,0-2c-0.02-0.05-0.94-2.3-1-2.11c-0.06-0.6,0.19-1.35,0-1.89c-0.02-0.06-1.12-2.72-1-2
						c-0.44-2.76,0.43-5.74,0-8.5c-0.37-2.39-1-4.6-1-7.5c0-5.5,0-11,0-16.5c0-11.2-1.68-22.59-4-33c-2.69-12.07-5.89-22.61-14-32.5
						c-4.46-5.43-9.22-9.94-15.5-13.75c-5.17-3.14-11.18-4.09-16.5-6.75h-6c0-0.33,0-0.67,0-1h-6c0-0.33,0-0.67,0-1h-12
						c0-0.33,0-0.67,0-1h-20c0-0.33,0-0.67,0-1h-25c0,0.33,0,0.67,0,1h-11c0,0.33,0,0.67,0,1h-6c0,0.33,0,0.67,0,1h-5
						c0,0.33,0,0.67,0,1h-4c-13.23,4.96-25.33,9.67-37,17.5c-6.47,4.34-13.62,10.17-18.5,16.5c-4.68,6.06-8.6,12.26-12.5,18.5
						c-3.13,5-5.16,10.47-7,16c-1.73,5.2-4.15,11.05-5,16.5c-1.68,10.73-2,21.42-2,33c0,2.83,0,5.67,0,8.5c0,3.02,1,4.87,1,8
						c0,5.44-1.25,10.88-2,16c-1.6,10.87-5,21.62-5,33c0,5.33,0,10.67,0,16c0,5.95,1,10.81,1,16.5c0,3.27,0.59,5.58,1,8.5
						c0.37,2.61-0.42,5.4,0,8c0.12,0.76,0.86,1.43,1,2.5c0.08,0.65,0,1.34,0,2c0,1.49,0.33,2.78,0.5,4c0.38,2.63,0.94,5.47,1.5,8
						c2.66,11.95,5.56,22.95,14,32.5c9.39,10.63,20.1,14.66,33,19.5h6c0,0.33,0,0.67,0,1h7c0,0.33,0,0.67,0,1h10c0,0.33,0,0.67,0,1
						h12c0,0.33,0,0.67,0,1h13c0,0.33,0,0.67,0,1h36c0-0.33,0-0.67,0-1h9c0-0.33,0-0.67,0-1h6c0-0.33,0-0.67,0-1h4
						c0-0.33,0-0.67,0-1h5c0-0.33,0-0.67,0-1h3c12.9-4.84,25.63-9.2,37-17c13.39-9.19,24.76-21.75,33-34.5
						c6.47-10.01,9.49-21.24,13-32.5c3.15-10.11,4-21.69,4-33C1114.52,484.38,1112.84,473.06,1109.52,463.11z"/>
					<g>
						<path class="st8" d="M1046.86,423.35l-5.04,0.9c-6.72-21.9-25.92-41.1-45.12-41.1c-11.76,0-26.4,6.6-26.4,23.7
							c0,10.5,5.28,15.6,24.96,22.8l28.08,10.5c21.84,8.1,39.84,28.2,39.84,53.4c0,49.8-30.24,72.6-79.44,72.6
							c-12.24,0-21.6-1.8-33.6-4.5c-4.56-1.2-11.28-3-15.84-3c-5.52,0-9.36,2.7-12.96,7.2l-5.28-83.7l5.28-0.9
							c4.56,34.8,27.36,60.9,55.92,60.9c16.32,0,35.04-4.8,35.04-29.7c0-9.9-5.76-17.1-24.72-24.9l-24.24-9.9
							c-9.12-3.6-20.4-8.7-27.84-16.2c-8.64-8.7-14.16-22.5-14.16-36.3c0-54,39.6-66,60.48-66c24.48,0,38.88,6.3,43.92,6.3
							c4.8,0,11.52-2.1,14.88-7.2L1046.86,423.35z"/>
					</g>
				</g>
				<g>
					<path class="st7" d="M300.52,282.11c0-6.83-1.03-13.39-2-20c-0.25-1.69-0.7-3.11-1-5c-0.2-1.29-1.79-3.71-2-5
						c-0.51-3.23-0.99-5.98-2-9c-2.31-6.94-5.94-13.35-9-20c-2.87-6.24-6.39-12.33-7-19.5c-1.05-12.28,0-26.11,0-39.5
						c0-6.83-0.18-12.87-1-19.5c-0.41-3.35-0.47-6.87-1-10.5c-0.24-1.65-0.8-2.64-1-4.5c-0.16-1.47,0.22-3.03,0-4.5
						c-2.04-13.7-4.66-27.54-11-39.5c-3.79-7.14-9.12-12.84-16-18c-5.89-4.41-13.15-6.43-20-9h-5c0-0.33,0-0.67,0-1h-7
						c0-0.33,0-0.67,0-1h-25c0-0.33,0-0.67,0-1h-16c0-0.33,0-0.67,0-1h-14c0-0.33,0-0.67,0-1h-28c0,0.33,0,0.67,0,1h-10
						c0,0.33,0,0.67,0,1h-6c0,0.33,0,0.67,0,1h-5c0,0.33,0,0.67,0,1h-5c0,0.33,0,0.67,0,1h-4c-7.1,3.55-14.87,5.43-22,9
						c-7.75,3.87-15.23,8.26-22,13.5c-15.36,11.89-27.31,27.23-35,43c-5.9,12.09-10.98,25.38-13,39c-1.75,11.77-3.86,26.29-2,39
						c0.9,6.15,2.11,12.91,3,19c0.54,3.7,1,6.75,1,10.5c0,0.81,0.12,1.71,0,2.5c-0.12,0.84-0.91,1.43-1,2
						c-0.13,0.77,0.23,1.75,0,2.5c-0.14,0.45-0.99,2.41-1,2.5c-1.06,6.73-3.94,12.27-5,19c-0.28,1.79-1.72,4.15-2,6
						c-0.24,1.63-0.83,3.19-1,4.5c-0.44,3.36-0.56,6.42-1,9.5c-0.86,6.05,0,12.88,0,19c0,6.93,0.44,13.04,1,20
						c0.28,3.48,1,6.22,1,10c0,1.5,0,3,0,4.5c0,0.8-0.12,1.71,0,2.5c0.14,0.97,0.89,1.29,1,2c0.54,3.4-0.29,7.07,0,10.5
						c0.28,3.26,1,5.93,1,9.5c0,3.73,0.51,6.43,1,10c0.25,1.82,0.72,2.75,1,4.5c0.13,0.81-0.12,1.69,0,2.5c0.14,0.97,0.89,1.29,1,2
						c0.59,3.7,0.87,6.61,2,10c1.14,3.42,2.42,6.77,4,10c6.93,14.21,19.59,22.72,35,28.5h5c0,0.33,0,0.67,0,1h5c0,0.33,0,0.67,0,1
						h11c0,0.33,0,0.67,0,1h21c0,0.33,0,0.67,0,1h11c0,0.33,0,0.67,0,1h8c0,0.33,0,0.67,0,1h11c0,0.33,0,0.67,0,1h14
						c0,0.33,0,0.67,0,1h17c0-0.33,0-0.67,0-1h13c0-0.33,0-0.67,0-1h9c0-0.33,0-0.67,0-1h6c0-0.33,0-0.67,0-1h6c0-0.33,0-0.67,0-1h4
						c0-0.33,0-0.67,0-1h4c0-0.33,0-0.67,0-1h4c0-0.33,0-0.67,0-1h4c7.26-3.63,15.23-5.61,22.5-9.25c7.77-3.89,15.27-8.16,22-13.5
						c7.5-5.95,15.96-12.51,22-20.25c5.5-7.04,10.2-14.47,14.5-22c3.57-6.25,5.73-12.7,8-19.5c2.12-6.36,5-13.25,6-20
						c0.28-1.91,0.75-3.3,1-5c0.14-0.98-0.14-2.02,0-3c0.12-0.83,0.91-1.44,1-2c0.5-3.08,0.05-6.62,0.5-9.5
						C300.97,295.53,300.52,288.53,300.52,282.11z"/>
					<g>
						<g>
							<path class="st8" d="M227.27,190.74l-6.72,1.2c-8.96-29.2-34.56-54.8-60.16-54.8c-15.68,0-35.2,8.8-35.2,31.6
								c0,14,7.04,20.8,33.28,30.4l37.44,14c29.12,10.8,53.12,37.6,53.12,71.2c0,66.4-40.32,96.8-105.92,96.8
								c-16.32,0-28.8-2.4-44.8-6c-6.08-1.6-15.04-4-21.12-4c-7.36,0-12.48,3.6-17.28,9.6l-7.04-111.6l7.04-1.2
								c6.08,46.4,36.48,81.2,74.56,81.2c21.76,0,46.72-6.4,46.72-39.6c0-13.2-7.68-22.8-32.96-33.2l-32.32-13.2
								c-12.16-4.8-27.2-11.6-37.12-21.6c-11.52-11.6-18.88-30-18.88-48.4c0-72,52.8-88,80.64-88c32.64,0,51.84,8.4,58.56,8.4
								c6.4,0,15.36-2.8,19.84-9.6L227.27,190.74z"/>
						</g>
					</g>
				</g>
				<g>
					<path class="st7" d="M1489.52,352.11c-1.12-3.35-1.46-6.85-3-10c-0.75-1.53-0.6-0.79-1-2c-0.12-0.37-0.79-2.57-1-3
						c-0.73-1.49-2.25-2.49-3-4c-3.2-6.5-6.6-13.09-10-19.5c-3.26-6.15-4.8-12.9-7-19.5c-2.12-6.37-4.86-12.59-7-19
						c-2.21-6.64-5.43-12.99-8-19.5c-1.33-3.36-2.97-6.73-4.5-10c-0.66-1.4-1.01-3.03-1.5-4.5c-0.45-1.36-1.79-3.65-2-5
						c-1.15-7.29,1.22-13.3,4-19c3.07-6.29,5.92-12.7,9-19c2.9-5.93,4.48-13.54,6-20c1.45-6.19,2-12.21,2-19c0-6.07,0.94-13.01,0-19
						c-0.12-0.76-0.84-1.89-1-3c-0.14-0.98,0.16-2.02,0-3c-0.11-0.71-0.86-1.03-1-2c-0.1-0.65,0.1-1.35,0-2
						c-0.47-3.19-2.07-6.46-3-9.5c-4.24-13.91-13.37-27.81-26-37.5c-5.94-4.56-12.46-9.26-19.5-12.17
						c-6.37-2.63-13.38-4.27-19.5-7.33h-5c0-0.33,0-0.67,0-1h-5c0-0.33,0-0.67,0-1h-6c0-0.33,0-0.67,0-1h-8c0-0.33,0-0.67,0-1h-14
						c0-0.33,0-0.67,0-1h-122c0,0.33,0,0.67,0,1h-12c0,0.33,0,0.67,0,1h-6c0,0.33,0,0.67,0,1h-5c0,0.33,0,0.67,0,1h-4
						c0,0.33,0,0.67,0,1h-4c-7.58,3.79-15.5,7-21.5,13c-6.52,6.52-10.82,12.96-13.5,21c-1.1,3.29-2.48,7.04-3,10.5
						c-0.5,3.33,0,7.13,0,10.5c0,3.36-0.53,7.19,0,10.5c0.08,0.49,0.79,2.37,1,3c0.18,0.54-0.09,1.47,0,2c0.22,1.34,1.78,3.65,2,5
						c1.06,6.63,2.92,12.77,5,19c1.02,3.07,2,6.63,2,10c0,3.46,1,5.58,1,9c0,12.33,0,24.67,0,37c0,25,0,50,0,75c0,6.33,0,12.67,0,19
						c0,6.45-1.55,12.67-3,18.5c-1.58,6.36-2.96,12.39-5,18.5c-1.98,5.94-3,12.3-3,19c0,6.27-0.42,12.81,1,18.5
						c1.56,6.26,4.13,13.24,8,18.5c4.64,6.32,10.69,12.35,18,16c6.28,3.14,12.48,5.05,19,7.5h5c0,0.33,0,0.67,0,1h6
						c0,0.33,0,0.67,0,1h12c0,0.33,0,0.67,0,1h59c0-0.33,0-0.67,0-1h15c0-0.33,0-0.67,0-1h33c0,0.33,0,0.67,0,1h16
						c0,0.33,0,0.67,0,1h67c0-0.33,0-0.67,0-1h12c0-0.33,0-0.67,0-1h6c0-0.33,0-0.67,0-1h5c7.45-2.79,15.18-4.63,22-9
						c8.16-5.23,14.17-12.64,18-20.5c3.1-6.36,6-13.43,6-21C1491.52,366.41,1491.77,358.85,1489.52,352.11z"/>
					<g>
						<g>
							<path class="st8" d="M1444.23,374.74h-107.52v-10c7.36,0,13.12-2.4,13.12-13.2c0-24.4-32-82-45.44-101.6l-11.2,4.8v70
								c0,28,4.48,40,17.6,40v10H1210.3v-10c13.12,0,17.6-12,17.6-40v-163.2c0-28-4.48-40-17.6-40v-10h144
								c21.12,0,57.92,2.4,57.92,40.4c0,33.2-24.32,55.2-45.44,68.8c23.68,28.4,42.24,68.4,53.44,111.2c3.52,14,9.92,32.8,24,32.8
								V374.74z M1293.19,225.54c21.76-6.8,51.2-22.8,51.2-56.8c0-20.4-10.88-30.8-26.88-30.8c-17.28,0-24.32,4.8-24.32,28.4V225.54
								z"/>
						</g>
					</g>
				</g>
				<g>
					<path class="st7" d="M1459.52,52.61c-2.4-10.87-8.23-20.23-17-28.5c-8.07-7.61-18.75-10.66-29-14.5h-5c0-0.33,0-0.67,0-1h-7
						c0-0.33,0-0.67,0-1h-11c0-0.33,0-0.67,0-1h-1309c0,0.33,0,0.67,0,1h-11c0,0.33,0,0.67,0,1h-7c0,0.33,0,0.67,0,1h-5
						c-12.69,4.76-23.27,8.77-33,18.5C11,42.63,8.14,65.76,12.52,85.61c2.4,10.87,8.23,20.23,17,28.5c8.07,7.61,18.75,10.66,29,14.5
						h5c0,0.33,0,0.67,0,1h7c0,0.33,0,0.67,0,1h11c0,0.33,0,0.67,0,1h1309c0-0.33,0-0.67,0-1h11c0-0.33,0-0.67,0-1h7
						c0-0.33,0-0.67,0-1h5c12.69-4.76,23.27-8.77,33-18.5C1461.04,95.59,1463.9,72.46,1459.52,52.61z"/>
					<g>
						<rect x="59.9" y="59.17" class="st9" width="1352.32" height="19.47"/>
					</g>
				</g>
				<g>
					<path class="st7" d="M427.02,414.61c-0.13-0.93-0.34-2.36-0.5-3.5c-0.16-1.17-0.86-2.15-1-3c-1.68-10.48-6.6-19.6-14.5-27.5
						c-8.05-8.05-17.55-11.02-27.5-16h-5c0-0.33,0-0.67,0-1h-5c0-0.33,0-0.67,0-1h-6c0-0.33,0-0.67,0-1h-12c0-0.33,0-0.67,0-1h-280
						c0,0.33,0,0.67,0,1h-12c0,0.33,0,0.67,0,1h-6c0,0.33,0,0.67,0,1h-5c0,0.33,0,0.67,0,1h-5c-11.24,5.62-22.9,9.08-31,19.5
						c-6.4,8.24-10.3,17.3-12,27.5c-0.75,4.52-1,9.01-1,14c0,2.41,0.2,4.88,0.5,7c0.13,0.93,0.34,2.36,0.5,3.5
						c0.16,1.17,0.86,2.15,1,3c1.68,10.48,6.6,19.6,14.5,27.5c8.05,8.05,17.55,11.02,27.5,16h5c0,0.33,0,0.67,0,1h5
						c0,0.33,0,0.67,0,1h6c0,0.33,0,0.67,0,1h12c0,0.33,0,0.67,0,1h280c0-0.33,0-0.67,0-1h12c0-0.33,0-0.67,0-1h6c0-0.33,0-0.67,0-1
						h5c0-0.33,0-0.67,0-1h5c11.24-5.62,22.9-9.08,31-19.5c6.4-8.24,10.3-17.3,12-27.5c0.75-4.52,1-9.01,1-14
						C427.52,419.2,427.32,416.72,427.02,414.61z"/>
					<g>
						<rect x="52.86" y="413.95" class="st10" width="325.99" height="19.47"/>
					</g>
				</g>
				<g>
					<path class="st7" d="M1493.02,414.61c-0.13-0.93-0.34-2.36-0.5-3.5c-0.16-1.17-0.86-2.15-1-3c-1.68-10.48-6.6-19.6-14.5-27.5
						c-8.05-8.05-17.55-11.02-27.5-16h-5c0-0.33,0-0.67,0-1h-5c0-0.33,0-0.67,0-1h-6c0-0.33,0-0.67,0-1h-12c0-0.33,0-0.67,0-1h-323
						c0,0.33,0,0.67,0,1h-12c0,0.33,0,0.67,0,1h-6c0,0.33,0,0.67,0,1h-5c0,0.33,0,0.67,0,1h-5c-11.24,5.62-22.9,9.08-31,19.5
						c-6.4,8.24-10.3,17.3-12,27.5c-0.75,4.52-1,9.01-1,14c0,2.41,0.2,4.88,0.5,7c0.13,0.93,0.34,2.36,0.5,3.5
						c0.16,1.17,0.86,2.15,1,3c1.68,10.48,6.6,19.6,14.5,27.5c8.05,8.05,17.55,11.02,27.5,16h5c0,0.33,0,0.67,0,1h5
						c0,0.33,0,0.67,0,1h6c0,0.33,0,0.67,0,1h12c0,0.33,0,0.67,0,1h323c0-0.33,0-0.67,0-1h12c0-0.33,0-0.67,0-1h6c0-0.33,0-0.67,0-1
						h5c0-0.33,0-0.67,0-1h5c11.24-5.62,22.9-9.08,31-19.5c6.4-8.24,10.3-17.3,12-27.5c0.75-4.52,1-9.01,1-14
						C1493.52,419.2,1493.32,416.72,1493.02,414.61z"/>
					<g>
						<rect x="1075.99" y="413.95" class="st11" width="368.24" height="19.47"/>
					</g>
				</g>
			</g>
		</g>
	</g>
</g>
</svg>
