<?xml version="1.0" encoding="utf-8"?>
<!-- Generator: Adobe Illustrator 24.1.0, SVG Export Plug-In . SVG Version: 6.00 Build 0)  -->
<svg version="1.1" id="Layer_1" xmlns="http://www.w3.org/2000/svg" xmlns:xlink="http://www.w3.org/1999/xlink" x="0px" y="0px"
	 viewBox="0 0 95.84 10.71" style="enable-background:new 0 0 95.84 10.71;" xml:space="preserve">
<style type="text/css">
	.st0{fill:#B3B3B3;}
</style>
<g>
	<path class="st0" d="M8.08,10.31L7.31,8.37H3.47l-0.73,1.95h-2.6L4.3,0.4h2.32l4.12,9.91H8.08z M5.42,3.05l-1.26,3.4h2.49
		L5.42,3.05z"/>
	<path class="st0" d="M20.05,2.98c-0.21-0.26-0.47-0.47-0.8-0.62c-0.33-0.15-0.65-0.23-0.96-0.23c-0.16,0-0.32,0.01-0.48,0.04
		c-0.16,0.03-0.31,0.08-0.44,0.16c-0.13,0.08-0.24,0.18-0.33,0.31c-0.09,0.13-0.13,0.29-0.13,0.48c0,0.17,0.04,0.31,0.1,0.42
		c0.07,0.11,0.17,0.21,0.31,0.29s0.3,0.16,0.48,0.23s0.4,0.14,0.63,0.22c0.34,0.11,0.69,0.24,1.05,0.37
		c0.36,0.14,0.7,0.32,0.99,0.54c0.3,0.22,0.55,0.5,0.74,0.83c0.2,0.33,0.29,0.74,0.29,1.24c0,0.57-0.1,1.06-0.31,1.48
		c-0.21,0.42-0.49,0.76-0.85,1.03c-0.35,0.27-0.76,0.47-1.22,0.6c-0.46,0.13-0.93,0.2-1.41,0.2c-0.71,0-1.4-0.12-2.06-0.37
		c-0.66-0.25-1.21-0.6-1.65-1.06l1.57-1.6c0.24,0.3,0.56,0.55,0.96,0.75c0.4,0.2,0.79,0.3,1.18,0.3c0.18,0,0.35-0.02,0.52-0.06
		c0.17-0.04,0.31-0.1,0.44-0.18s0.23-0.2,0.3-0.34c0.07-0.14,0.11-0.31,0.11-0.5c0-0.19-0.05-0.35-0.14-0.48
		c-0.09-0.13-0.23-0.25-0.4-0.36s-0.39-0.21-0.64-0.29S17.35,6.2,17.02,6.1c-0.32-0.1-0.63-0.22-0.93-0.36
		c-0.3-0.14-0.57-0.32-0.81-0.54c-0.24-0.22-0.43-0.49-0.57-0.8c-0.15-0.31-0.22-0.69-0.22-1.14c0-0.55,0.11-1.02,0.34-1.41
		c0.22-0.39,0.52-0.71,0.88-0.97c0.36-0.25,0.77-0.44,1.23-0.55c0.46-0.12,0.92-0.17,1.39-0.17c0.56,0,1.13,0.1,1.71,0.31
		c0.58,0.21,1.09,0.51,1.53,0.91L20.05,2.98z"/>
	<path class="st0" d="M23.08,10.31V0.4h6.66v2.02h-4.35v1.88h4.12v1.92h-4.12v2.06H30v2.04H23.08z"/>
	<path class="st0" d="M38.68,10.14c-0.64,0.29-1.39,0.44-2.23,0.44c-0.77,0-1.47-0.13-2.12-0.38c-0.65-0.25-1.21-0.61-1.69-1.07
		s-0.85-1.02-1.12-1.66c-0.27-0.64-0.41-1.35-0.41-2.13c0-0.79,0.14-1.51,0.41-2.16c0.27-0.64,0.66-1.19,1.14-1.65
		c0.49-0.45,1.05-0.8,1.71-1.04c0.65-0.24,1.36-0.36,2.11-0.36c0.7,0,1.39,0.12,2.06,0.37s1.23,0.61,1.65,1.08l-1.62,1.62
		c-0.22-0.31-0.52-0.54-0.88-0.69c-0.36-0.15-0.74-0.22-1.12-0.22c-0.42,0-0.81,0.08-1.15,0.23c-0.35,0.15-0.65,0.37-0.9,0.64
		s-0.45,0.59-0.59,0.96c-0.14,0.37-0.21,0.77-0.21,1.21c0,0.45,0.07,0.86,0.21,1.23c0.14,0.37,0.33,0.69,0.58,0.96
		c0.25,0.27,0.54,0.47,0.89,0.62c0.34,0.15,0.72,0.22,1.13,0.22c0.48,0,0.89-0.09,1.25-0.28c0.35-0.19,0.64-0.43,0.85-0.73
		l1.67,1.57C39.87,9.44,39.32,9.84,38.68,10.14z"/>
	<path class="st0" d="M46.63,10.31l-2.15-3.93h-0.82v3.93h-2.34V0.4h3.78c0.48,0,0.94,0.05,1.39,0.15c0.45,0.1,0.86,0.26,1.22,0.5
		c0.36,0.23,0.65,0.54,0.86,0.92S48.9,2.83,48.9,3.4c0,0.67-0.18,1.24-0.55,1.69c-0.36,0.46-0.87,0.78-1.51,0.98l2.59,4.24H46.63z
		 M46.53,3.44c0-0.23-0.05-0.42-0.15-0.57c-0.1-0.14-0.23-0.26-0.38-0.34c-0.15-0.08-0.33-0.13-0.52-0.16
		c-0.19-0.03-0.38-0.04-0.56-0.04h-1.28v2.31h1.14c0.2,0,0.4-0.02,0.6-0.05c0.21-0.03,0.39-0.09,0.56-0.17s0.31-0.21,0.42-0.36
		C46.48,3.9,46.53,3.69,46.53,3.44z"/>
	<path class="st0" d="M50.61,10.31V0.4h6.66v2.02h-4.35v1.88h4.12v1.92h-4.12v2.06h4.61v2.04H50.61z"/>
	<path class="st0" d="M63.35,2.44v7.87h-2.39V2.44h-2.8V0.4h7.99v2.04H63.35z"/>
	<path class="st0" d="M70.4,10.31V0.4h2.41v7.83h3.84v2.09H70.4z"/>
	<path class="st0" d="M84.49,10.31l-0.77-1.95h-3.84l-0.73,1.95h-2.6l4.16-9.91h2.32l4.12,9.91H84.49z M81.83,3.05l-1.26,3.4h2.49
		L81.83,3.05z"/>
	<path class="st0" d="M95.7,7.43c0,0.54-0.11,1-0.32,1.37c-0.21,0.37-0.5,0.67-0.85,0.89c-0.36,0.22-0.76,0.38-1.21,0.48
		c-0.45,0.1-0.92,0.15-1.39,0.15h-3.95V0.4h3.95c0.38,0,0.77,0.04,1.18,0.12s0.77,0.21,1.09,0.41c0.33,0.19,0.59,0.45,0.8,0.78
		c0.21,0.33,0.31,0.74,0.31,1.25c0,0.55-0.15,1.01-0.45,1.37s-0.69,0.62-1.18,0.78v0.03c0.28,0.05,0.54,0.13,0.79,0.26
		s0.46,0.29,0.64,0.48c0.18,0.2,0.33,0.42,0.43,0.69C95.65,6.81,95.7,7.1,95.7,7.43z M92.99,3.27c0-0.34-0.13-0.58-0.39-0.74
		c-0.26-0.15-0.64-0.23-1.14-0.23h-1.18v2.04h1.29c0.45,0,0.79-0.09,1.04-0.27C92.86,3.89,92.99,3.62,92.99,3.27z M93.31,7.2
		c0-0.41-0.15-0.69-0.46-0.85c-0.31-0.16-0.72-0.24-1.23-0.24h-1.33v2.27h1.34c0.19,0,0.38-0.02,0.58-0.05
		c0.2-0.03,0.38-0.09,0.55-0.17s0.3-0.2,0.4-0.36C93.26,7.65,93.31,7.45,93.31,7.2z"/>
</g>
</svg>
