<?xml version="1.0" encoding="utf-8"?>
<!-- Generator: Adobe Illustrator 24.1.0, SVG Export Plug-In . SVG Version: 6.00 Build 0)  -->
<svg version="1.1" id="Layer_1" xmlns="http://www.w3.org/2000/svg" xmlns:xlink="http://www.w3.org/1999/xlink" x="0px" y="0px"
	 viewBox="0 0 46.29 7.66" style="enable-background:new 0 0 46.29 7.66;" xml:space="preserve">
<style type="text/css">
	.st0{fill:#B3B3B3;}
</style>
<g>
	<path class="st0" d="M4.12,1.6C3.98,1.4,3.79,1.25,3.55,1.12C3.31,1,3.04,0.94,2.74,0.94C2.58,0.94,2.42,0.96,2.26,1
		C2.09,1.05,1.94,1.12,1.81,1.21S1.57,1.43,1.49,1.57C1.4,1.72,1.36,1.89,1.36,2.09c0,0.19,0.04,0.36,0.11,0.49S1.65,2.81,1.78,2.9
		s0.28,0.17,0.46,0.23c0.18,0.06,0.37,0.13,0.56,0.2C3.05,3.4,3.29,3.48,3.54,3.58c0.25,0.09,0.47,0.22,0.67,0.37
		C4.41,4.1,4.57,4.29,4.7,4.52C4.83,4.75,4.89,5.04,4.89,5.4c0,0.37-0.07,0.68-0.21,0.96C4.55,6.62,4.37,6.85,4.14,7.02
		C3.91,7.2,3.65,7.33,3.36,7.42c-0.3,0.09-0.6,0.13-0.92,0.13c-0.45,0-0.88-0.09-1.3-0.26C0.73,7.11,0.38,6.86,0.11,6.52l0.77-0.65
		c0.17,0.25,0.39,0.45,0.67,0.6C1.83,6.62,2.13,6.7,2.46,6.7c0.17,0,0.33-0.02,0.5-0.07c0.17-0.05,0.32-0.12,0.45-0.22
		s0.25-0.22,0.33-0.38C3.84,5.88,3.88,5.7,3.88,5.49c0-0.21-0.04-0.39-0.14-0.54C3.65,4.81,3.53,4.69,3.38,4.59
		C3.23,4.49,3.05,4.4,2.84,4.33C2.64,4.26,2.43,4.19,2.2,4.12C1.97,4.05,1.75,3.97,1.53,3.87C1.31,3.78,1.11,3.65,0.94,3.5
		C0.77,3.35,0.63,3.17,0.52,2.95C0.41,2.73,0.36,2.45,0.36,2.13c0-0.35,0.07-0.66,0.21-0.91C0.72,0.96,0.9,0.75,1.13,0.59
		C1.36,0.42,1.62,0.3,1.91,0.22C2.2,0.15,2.5,0.11,2.79,0.11c0.41,0,0.8,0.07,1.16,0.22S4.6,0.67,4.82,0.92L4.12,1.6z"/>
	<path class="st0" d="M7.28,6.49h3.7v0.88H6.29V0.29h4.54v0.87H7.28v2.12h3.34v0.85H7.28V6.49z"/>
	<path class="st0" d="M14.78,7.37h-0.99V1.16h-2.27V0.29h5.53v0.87h-2.27V7.37z"/>
	<path class="st0" d="M20.47,7.37h-0.99V1.16h-2.27V0.29h5.53v0.87h-2.27V7.37z"/>
	<path class="st0" d="M24.67,7.37h-0.99V0.29h0.99V7.37z"/>
	<path class="st0" d="M31.38,5.95h0.02V0.29h0.99v7.08h-1.25L27.4,1.59h-0.02v5.78h-0.99V0.29h1.29L31.38,5.95z"/>
	<path class="st0" d="M39.45,1.75c-0.21-0.23-0.49-0.42-0.82-0.56c-0.33-0.14-0.7-0.21-1.1-0.21c-0.41,0-0.79,0.07-1.12,0.22
		c-0.33,0.15-0.62,0.36-0.85,0.62s-0.41,0.56-0.54,0.91c-0.13,0.34-0.19,0.71-0.19,1.09c0,0.39,0.06,0.76,0.19,1.11
		c0.13,0.35,0.31,0.65,0.54,0.91s0.52,0.46,0.86,0.61s0.72,0.22,1.14,0.22c0.33,0,0.64-0.03,0.92-0.09
		c0.28-0.06,0.52-0.15,0.73-0.26V4.34h-1.57V3.5h2.55v3.43c-0.37,0.2-0.78,0.35-1.22,0.46c-0.44,0.11-0.92,0.16-1.44,0.16
		c-0.55,0-1.06-0.09-1.52-0.27c-0.46-0.18-0.86-0.44-1.19-0.77c-0.33-0.33-0.59-0.72-0.78-1.18c-0.19-0.46-0.28-0.96-0.28-1.5
		c0-0.55,0.1-1.06,0.29-1.52c0.19-0.46,0.45-0.85,0.79-1.17c0.34-0.32,0.73-0.57,1.19-0.75c0.46-0.18,0.96-0.27,1.5-0.27
		c0.57,0,1.07,0.08,1.52,0.25c0.44,0.17,0.81,0.39,1.1,0.67L39.45,1.75z"/>
	<path class="st0" d="M45.41,1.6c-0.14-0.19-0.33-0.35-0.57-0.48C44.6,1,44.33,0.94,44.03,0.94c-0.16,0-0.32,0.02-0.48,0.06
		c-0.16,0.04-0.31,0.11-0.45,0.21s-0.24,0.22-0.32,0.36c-0.08,0.14-0.12,0.31-0.12,0.51c0,0.19,0.04,0.36,0.11,0.49
		s0.18,0.24,0.31,0.33s0.28,0.17,0.46,0.23c0.18,0.06,0.37,0.13,0.56,0.2c0.24,0.07,0.48,0.16,0.73,0.25
		c0.25,0.09,0.47,0.22,0.67,0.37c0.2,0.15,0.36,0.34,0.49,0.58c0.13,0.23,0.19,0.52,0.19,0.88c0,0.37-0.07,0.68-0.21,0.96
		c-0.14,0.27-0.32,0.49-0.54,0.67s-0.49,0.31-0.78,0.39c-0.3,0.09-0.6,0.13-0.92,0.13c-0.45,0-0.88-0.09-1.3-0.26
		c-0.42-0.17-0.76-0.43-1.03-0.77l0.77-0.65c0.17,0.25,0.39,0.45,0.67,0.6c0.28,0.15,0.58,0.23,0.91,0.23c0.17,0,0.33-0.02,0.5-0.07
		c0.17-0.05,0.32-0.12,0.45-0.22s0.25-0.22,0.33-0.38c0.09-0.15,0.13-0.33,0.13-0.54c0-0.21-0.04-0.39-0.14-0.54
		c-0.09-0.14-0.21-0.26-0.36-0.37c-0.15-0.1-0.33-0.18-0.54-0.25c-0.2-0.07-0.42-0.14-0.65-0.21c-0.23-0.07-0.45-0.15-0.67-0.25
		c-0.22-0.1-0.42-0.22-0.59-0.37c-0.17-0.15-0.31-0.33-0.42-0.55c-0.11-0.22-0.16-0.49-0.16-0.82c0-0.35,0.07-0.66,0.21-0.91
		c0.14-0.25,0.33-0.46,0.56-0.63c0.23-0.17,0.49-0.29,0.78-0.36c0.29-0.08,0.58-0.12,0.88-0.12c0.41,0,0.8,0.07,1.16,0.22
		s0.65,0.34,0.87,0.59L45.41,1.6z"/>
</g>
</svg>
