<?xml version="1.0" encoding="utf-8"?>
<!-- Generator: Adobe Illustrator 24.1.0, SVG Export Plug-In . SVG Version: 6.00 Build 0)  -->
<svg version="1.1" id="Layer_1" xmlns="http://www.w3.org/2000/svg" xmlns:xlink="http://www.w3.org/1999/xlink" x="0px" y="0px"
	 viewBox="0 0 100.83 10.71" style="enable-background:new 0 0 100.83 10.71;" xml:space="preserve">
<style type="text/css">
	.st0{fill:#B3B3B3;}
</style>
<g>
	<path class="st0" d="M5.4,2.44v7.87H3V2.44H0.2V0.39H8.2v2.04H5.4z"/>
	<path class="st0" d="M15.55,10.3V6.16h-3.86v4.14H9.29V0.39h2.39v3.75h3.86V0.39h2.39v9.91H15.55z"/>
	<path class="st0" d="M19.99,10.3V0.39h6.66v2.02H22.3v1.88h4.12V6.2H22.3v2.06h4.61v2.04H19.99z"/>
	<path class="st0" d="M37.29,10.3l-2.15-3.93h-0.82v3.93h-2.34V0.39h3.78c0.48,0,0.94,0.05,1.39,0.15c0.45,0.1,0.86,0.26,1.22,0.5
		c0.36,0.23,0.65,0.54,0.86,0.92s0.32,0.86,0.32,1.43c0,0.67-0.18,1.24-0.55,1.69c-0.36,0.46-0.87,0.78-1.51,0.98l2.59,4.24H37.29z
		 M37.19,3.43c0-0.23-0.05-0.42-0.15-0.57c-0.1-0.14-0.23-0.26-0.38-0.34c-0.15-0.08-0.33-0.13-0.52-0.16
		c-0.19-0.03-0.38-0.04-0.56-0.04h-1.28v2.31h1.14c0.2,0,0.4-0.02,0.6-0.05c0.21-0.03,0.39-0.09,0.56-0.17s0.31-0.21,0.42-0.36
		C37.14,3.89,37.19,3.68,37.19,3.43z"/>
	<path class="st0" d="M49.37,8.2c-0.2,0.49-0.49,0.91-0.86,1.26c-0.37,0.35-0.82,0.62-1.35,0.82c-0.53,0.2-1.11,0.29-1.76,0.29
		c-0.65,0-1.24-0.1-1.76-0.29c-0.52-0.2-0.97-0.47-1.33-0.82c-0.36-0.35-0.64-0.77-0.84-1.26c-0.2-0.49-0.29-1.03-0.29-1.63V0.39
		h2.38v5.98c0,0.27,0.03,0.53,0.1,0.77c0.07,0.24,0.18,0.46,0.32,0.65s0.34,0.34,0.57,0.46c0.24,0.11,0.52,0.17,0.86,0.17
		s0.62-0.06,0.86-0.17c0.24-0.11,0.43-0.26,0.58-0.46s0.26-0.41,0.32-0.65c0.06-0.24,0.1-0.5,0.1-0.77V0.39h2.39v6.17
		C49.67,7.16,49.57,7.71,49.37,8.2z"/>
	<path class="st0" d="M56.83,2.97c-0.21-0.26-0.47-0.47-0.8-0.62s-0.65-0.23-0.96-0.23c-0.16,0-0.32,0.01-0.48,0.04
		c-0.16,0.03-0.31,0.08-0.44,0.16c-0.13,0.08-0.24,0.18-0.33,0.31c-0.09,0.13-0.13,0.29-0.13,0.48c0,0.17,0.04,0.31,0.1,0.42
		c0.07,0.11,0.17,0.21,0.31,0.29s0.3,0.16,0.48,0.23c0.19,0.07,0.4,0.14,0.63,0.22c0.34,0.11,0.69,0.24,1.05,0.37
		c0.36,0.14,0.7,0.32,0.99,0.54c0.3,0.22,0.55,0.5,0.74,0.83c0.2,0.33,0.29,0.74,0.29,1.24c0,0.57-0.1,1.06-0.31,1.48
		c-0.21,0.42-0.49,0.76-0.85,1.03c-0.35,0.27-0.76,0.47-1.22,0.6c-0.46,0.13-0.93,0.2-1.41,0.2c-0.71,0-1.4-0.12-2.06-0.37
		s-1.21-0.6-1.65-1.06l1.57-1.6c0.24,0.3,0.56,0.55,0.96,0.75c0.4,0.2,0.79,0.3,1.18,0.3c0.18,0,0.35-0.02,0.52-0.06
		c0.17-0.04,0.31-0.1,0.44-0.18s0.23-0.2,0.3-0.34c0.07-0.14,0.11-0.31,0.11-0.5c0-0.19-0.05-0.35-0.14-0.48
		c-0.09-0.13-0.23-0.25-0.4-0.36s-0.39-0.21-0.64-0.29s-0.55-0.18-0.88-0.29c-0.32-0.1-0.63-0.22-0.93-0.36
		c-0.3-0.14-0.57-0.32-0.81-0.54c-0.24-0.22-0.43-0.49-0.57-0.8c-0.15-0.31-0.22-0.69-0.22-1.14c0-0.55,0.11-1.02,0.34-1.41
		c0.22-0.39,0.52-0.71,0.88-0.97c0.36-0.25,0.77-0.44,1.23-0.55c0.46-0.12,0.92-0.17,1.39-0.17c0.56,0,1.13,0.1,1.71,0.31
		c0.58,0.21,1.09,0.51,1.53,0.91L56.83,2.97z"/>
	<path class="st0" d="M65.11,2.97c-0.21-0.26-0.47-0.47-0.8-0.62c-0.33-0.15-0.65-0.23-0.96-0.23c-0.16,0-0.32,0.01-0.48,0.04
		c-0.16,0.03-0.31,0.08-0.44,0.16c-0.13,0.08-0.24,0.18-0.33,0.31C62,2.75,61.96,2.91,61.96,3.11c0,0.17,0.04,0.31,0.11,0.42
		c0.07,0.11,0.17,0.21,0.31,0.29c0.14,0.08,0.3,0.16,0.48,0.23c0.19,0.07,0.4,0.14,0.63,0.22c0.34,0.11,0.69,0.24,1.05,0.37
		c0.36,0.14,0.7,0.32,0.99,0.54s0.55,0.5,0.74,0.83s0.29,0.74,0.29,1.24c0,0.57-0.11,1.06-0.32,1.48c-0.21,0.42-0.49,0.76-0.85,1.03
		s-0.76,0.47-1.22,0.6c-0.46,0.13-0.93,0.2-1.41,0.2c-0.71,0-1.4-0.12-2.06-0.37c-0.66-0.25-1.21-0.6-1.65-1.06l1.57-1.6
		c0.24,0.3,0.56,0.55,0.96,0.75c0.4,0.2,0.79,0.3,1.18,0.3c0.18,0,0.35-0.02,0.52-0.06c0.17-0.04,0.32-0.1,0.44-0.18
		s0.23-0.2,0.3-0.34c0.07-0.14,0.11-0.31,0.11-0.5c0-0.19-0.05-0.35-0.14-0.48c-0.09-0.13-0.23-0.25-0.4-0.36s-0.39-0.21-0.64-0.29
		s-0.55-0.18-0.88-0.29c-0.32-0.1-0.63-0.22-0.93-0.36c-0.3-0.14-0.57-0.32-0.81-0.54c-0.24-0.22-0.43-0.49-0.57-0.8
		c-0.15-0.31-0.22-0.69-0.22-1.14c0-0.55,0.11-1.02,0.34-1.41c0.22-0.39,0.52-0.71,0.88-0.97c0.36-0.25,0.77-0.44,1.23-0.55
		c0.46-0.12,0.92-0.17,1.39-0.17c0.56,0,1.13,0.1,1.71,0.31c0.58,0.21,1.09,0.51,1.53,0.91L65.11,2.97z"/>
	<path class="st0" d="M68.15,10.3V0.39h2.41v9.91H68.15z"/>
	<path class="st0" d="M79.32,10.3l-0.77-1.95h-3.84l-0.73,1.95h-2.6l4.16-9.91h2.32l4.12,9.91H79.32z M76.66,3.04l-1.26,3.4h2.49
		L76.66,3.04z"/>
	<path class="st0" d="M89.1,10.3l-3.99-6.48h-0.04l0.06,6.48H82.8V0.39h2.73l3.98,6.47h0.04L89.5,0.39h2.32v9.91H89.1z"/>
	<path class="st0" d="M99.1,2.97c-0.21-0.26-0.47-0.47-0.8-0.62s-0.65-0.23-0.96-0.23c-0.16,0-0.32,0.01-0.48,0.04
		c-0.16,0.03-0.31,0.08-0.44,0.16c-0.13,0.08-0.24,0.18-0.33,0.31s-0.13,0.29-0.13,0.48c0,0.17,0.04,0.31,0.1,0.42
		c0.07,0.11,0.17,0.21,0.31,0.29c0.13,0.08,0.3,0.16,0.48,0.23c0.19,0.07,0.4,0.14,0.63,0.22c0.34,0.11,0.69,0.24,1.05,0.37
		c0.36,0.14,0.7,0.32,0.99,0.54c0.3,0.22,0.55,0.5,0.74,0.83c0.2,0.33,0.29,0.74,0.29,1.24c0,0.57-0.1,1.06-0.31,1.48
		c-0.21,0.42-0.49,0.76-0.85,1.03c-0.35,0.27-0.76,0.47-1.22,0.6c-0.46,0.13-0.93,0.2-1.41,0.2c-0.71,0-1.4-0.12-2.06-0.37
		c-0.66-0.25-1.21-0.6-1.65-1.06l1.57-1.6c0.24,0.3,0.56,0.55,0.96,0.75c0.4,0.2,0.79,0.3,1.18,0.3c0.18,0,0.35-0.02,0.52-0.06
		c0.17-0.04,0.31-0.1,0.44-0.18s0.23-0.2,0.3-0.34c0.07-0.14,0.11-0.31,0.11-0.5c0-0.19-0.05-0.35-0.14-0.48
		c-0.09-0.13-0.23-0.25-0.4-0.36s-0.39-0.21-0.64-0.29s-0.55-0.18-0.88-0.29c-0.32-0.1-0.63-0.22-0.93-0.36
		c-0.3-0.14-0.57-0.32-0.81-0.54c-0.24-0.22-0.43-0.49-0.57-0.8s-0.22-0.69-0.22-1.14c0-0.55,0.11-1.02,0.34-1.41
		c0.22-0.39,0.52-0.71,0.88-0.97c0.36-0.25,0.77-0.44,1.23-0.55c0.46-0.12,0.92-0.17,1.39-0.17c0.56,0,1.13,0.1,1.71,0.31
		c0.58,0.21,1.09,0.51,1.53,0.91L99.1,2.97z"/>
</g>
</svg>
