<?xml version="1.0" encoding="utf-8"?>
<!-- Generator: Adobe Illustrator 24.1.0, SVG Export Plug-In . SVG Version: 6.00 Build 0)  -->
<svg version="1.1" id="Layer_1" xmlns="http://www.w3.org/2000/svg" xmlns:xlink="http://www.w3.org/1999/xlink" x="0px" y="0px"
	 viewBox="0 0 81.25 10.59" style="enable-background:new 0 0 81.25 10.59;" xml:space="preserve">
<style type="text/css">
	.st0{fill:#B3B3B3;}
</style>
<path class="st0" d="M11.73,10.25H9.36L7.4,3.54H7.36L5.4,10.25H3.02L0.2,0.34h2.58l1.57,6.59h0.04l1.76-6.59h2.49l1.78,6.59h0.04
	l1.6-6.59h2.49L11.73,10.25z"/>
<path class="st0" d="M15.58,10.25V0.34h2.41v9.91H15.58z"/>
<path class="st0" d="M20.03,10.25V0.34h2.41v7.83h3.84v2.09H20.03z"/>
<path class="st0" d="M27.39,10.25V0.34h2.41v7.83h3.84v2.09H27.39z"/>
<path class="st0" d="M45.65,7.37c0,0.54-0.11,1-0.32,1.36c-0.21,0.37-0.5,0.67-0.85,0.89c-0.35,0.22-0.76,0.38-1.21,0.48
	s-0.92,0.15-1.39,0.15h-3.95V0.34h3.95c0.38,0,0.77,0.04,1.18,0.12c0.4,0.08,0.77,0.21,1.09,0.41c0.33,0.19,0.59,0.45,0.8,0.78
	c0.21,0.33,0.31,0.74,0.31,1.25c0,0.55-0.15,1.01-0.45,1.36s-0.69,0.62-1.18,0.78v0.03c0.28,0.05,0.54,0.13,0.79,0.26
	c0.25,0.13,0.46,0.29,0.64,0.48c0.18,0.2,0.33,0.42,0.43,0.69C45.59,6.75,45.65,7.04,45.65,7.37z M42.93,3.21
	c0-0.34-0.13-0.58-0.39-0.73c-0.26-0.15-0.64-0.23-1.14-0.23h-1.18v2.04h1.29c0.45,0,0.8-0.09,1.04-0.27
	C42.81,3.83,42.93,3.56,42.93,3.21z M43.25,7.14c0-0.41-0.15-0.7-0.46-0.85s-0.72-0.24-1.23-0.24h-1.33v2.27h1.34
	c0.19,0,0.38-0.02,0.58-0.05s0.38-0.09,0.55-0.17c0.16-0.08,0.3-0.2,0.4-0.36C43.2,7.58,43.25,7.39,43.25,7.14z"/>
<path class="st0" d="M52.04,6.05v4.2h-2.39v-4.2l-3.72-5.71h2.9l2.11,3.67l2.11-3.67h2.8L52.04,6.05z"/>
<path class="st0" d="M56.6,10.25V0.34h6.66v2.02h-4.35v1.88h4.12v1.92h-4.12v2.06h4.61v2.04H56.6z"/>
<path class="st0" d="M70.4,10.25l-2.15-3.93h-0.82v3.93h-2.34V0.34h3.78c0.48,0,0.94,0.05,1.39,0.15c0.45,0.1,0.86,0.26,1.22,0.5
	c0.36,0.23,0.65,0.54,0.86,0.92c0.21,0.38,0.32,0.86,0.32,1.43c0,0.67-0.18,1.24-0.55,1.69c-0.36,0.46-0.87,0.78-1.51,0.98
	l2.59,4.24H70.4z M70.3,3.38c0-0.23-0.05-0.42-0.15-0.57s-0.23-0.26-0.38-0.34c-0.16-0.08-0.33-0.13-0.52-0.16s-0.38-0.04-0.56-0.04
	h-1.28v2.31h1.14c0.2,0,0.4-0.02,0.6-0.05c0.21-0.03,0.39-0.09,0.56-0.17s0.31-0.21,0.42-0.36C70.25,3.83,70.3,3.63,70.3,3.38z"/>
<path class="st0" d="M79.61,2.91c-0.21-0.26-0.47-0.47-0.8-0.62c-0.33-0.15-0.65-0.23-0.96-0.23c-0.16,0-0.32,0.01-0.48,0.04
	s-0.31,0.08-0.44,0.16c-0.13,0.08-0.24,0.18-0.33,0.31c-0.09,0.13-0.13,0.29-0.13,0.48c0,0.17,0.04,0.31,0.11,0.42
	c0.07,0.11,0.17,0.21,0.31,0.29c0.14,0.08,0.3,0.16,0.48,0.23c0.19,0.07,0.4,0.14,0.63,0.22c0.34,0.11,0.69,0.24,1.05,0.37
	s0.7,0.31,0.99,0.54s0.55,0.5,0.74,0.83c0.2,0.33,0.29,0.74,0.29,1.24c0,0.57-0.11,1.06-0.32,1.48c-0.21,0.42-0.49,0.76-0.85,1.03
	s-0.76,0.47-1.22,0.6c-0.46,0.13-0.93,0.2-1.41,0.2c-0.71,0-1.4-0.12-2.06-0.37c-0.66-0.25-1.21-0.6-1.65-1.06l1.57-1.6
	c0.24,0.3,0.56,0.55,0.96,0.75c0.4,0.2,0.79,0.3,1.18,0.3c0.18,0,0.35-0.02,0.52-0.06c0.17-0.04,0.32-0.1,0.44-0.18
	s0.23-0.2,0.3-0.34c0.07-0.14,0.11-0.31,0.11-0.5c0-0.19-0.05-0.35-0.14-0.48c-0.09-0.13-0.23-0.25-0.4-0.36s-0.39-0.21-0.64-0.29
	c-0.26-0.09-0.55-0.18-0.88-0.29c-0.32-0.1-0.63-0.22-0.93-0.36c-0.3-0.14-0.57-0.32-0.81-0.54c-0.24-0.22-0.43-0.48-0.57-0.8
	c-0.15-0.31-0.22-0.69-0.22-1.14c0-0.55,0.11-1.02,0.34-1.41c0.22-0.39,0.52-0.71,0.88-0.97s0.77-0.44,1.23-0.55
	c0.46-0.12,0.92-0.18,1.39-0.18c0.56,0,1.13,0.1,1.71,0.31C80.19,0.6,80.7,0.9,81.14,1.3L79.61,2.91z"/>
</svg>
