<?xml version="1.0" encoding="utf-8"?>
<!-- Generator: Adobe Illustrator 24.1.0, SVG Export Plug-In . SVG Version: 6.00 Build 0)  -->
<svg version="1.1" id="Layer_1" xmlns="http://www.w3.org/2000/svg" xmlns:xlink="http://www.w3.org/1999/xlink" x="0px" y="0px"
	 viewBox="0 0 22 22" style="enable-background:new 0 0 22 22;" xml:space="preserve">
<style type="text/css">
	.st0{fill:#808080;}
</style>
<path class="st0" d="M20.98,13.28l-2-9C18.87,3.83,18.47,3.5,18,3.5h-3v2h2.2l0.96,4.33c-0.51-0.2-1.07-0.33-1.66-0.33
	c-1.95,0-3.6,1.26-4.22,3H9.72c-0.62-1.74-2.27-3-4.22-3c-0.59,0-1.14,0.12-1.66,0.33L4.8,5.5H7v-2H4c-0.47,0-0.88,0.33-0.98,0.78
	l-2,9l0.05,0.01C1.04,13.52,1,13.76,1,14c0,2.48,2.02,4.5,4.5,4.5c2.31,0,4.2-1.76,4.45-4h2.1c0.25,2.24,2.14,4,4.45,4
	c2.48,0,4.5-2.02,4.5-4.5c0-0.24-0.03-0.48-0.07-0.71L20.98,13.28z M5.5,16.5C4.12,16.5,3,15.38,3,14s1.12-2.5,2.5-2.5S8,12.62,8,14
	S6.88,16.5,5.5,16.5z M16.5,16.5c-1.38,0-2.5-1.12-2.5-2.5s1.12-2.5,2.5-2.5S19,12.62,19,14S17.88,16.5,16.5,16.5z"/>
</svg>
