<?xml version="1.0" encoding="utf-8"?>
<!-- Generator: Adobe Illustrator 24.1.0, SVG Export Plug-In . SVG Version: 6.00 Build 0)  -->
<svg version="1.1" id="Layer_1" xmlns="http://www.w3.org/2000/svg" xmlns:xlink="http://www.w3.org/1999/xlink" x="0px" y="0px"
	 viewBox="0 0 22 22" style="enable-background:new 0 0 22 22;" xml:space="preserve">
<style type="text/css">
	.st0{fill:#808080;}
</style>
<g>
	<path class="st0" d="M4.21,17.09v3.62l1.45-0.87l0,0l4.57-2.74h4.53c1.06,0,1.92-0.86,1.92-1.92V7.49c0-1.06-0.86-1.92-1.92-1.92
		H3.25c-1.06,0-1.92,0.86-1.92,1.92v7.68c0,1.06,0.86,1.92,1.92,1.92H4.21z M3.25,7.49h11.52v7.68H9.7l-3.57,2.14v-2.14H3.25V7.49z"
		/>
	<path class="st0" d="M18.61,1.73h-0.96h-1.92H7.09c-1.06,0-1.92,0.86-1.92,1.92h10.16h1.36c1.06,0,1.92,0.86,1.92,1.92v1.36v4.4
		v1.92c1.06,0,1.92-0.86,1.92-1.92v-4.8V4.61V3.65C20.53,2.59,19.67,1.73,18.61,1.73z"/>
</g>
</svg>
